{"glyphs":{"0":{"ha":778,"x_min":60,"x_max":717,"o":"m 100 739 q 120 794 100 739 q 209 890 140 849 q 374 931 278 931 q 529 908 471 931 q 631 831 588 885 q 717 458 717 725 q 634 88 717 190 q 388 -14 551 -14 q 142 87 224 -14 q 60 442 60 188 q 100 739 60 629 m 524 819 q 388 854 474 854 q 253 821 303 854 q 149 440 149 750 q 207 144 149 225 q 389 64 265 64 q 519 94 469 64 q 628 442 628 161 q 524 819 628 747 z "},"1":{"ha":778,"x_min":160,"x_max":529,"o":"m 529 917 l 529 0 l 444 0 l 444 822 l 200 658 l 160 725 l 449 917 l 529 917 z "},"2":{"ha":778,"x_min":97,"x_max":682,"o":"m 682 0 l 97 0 l 97 72 l 383 375 q 484 485 453 449 q 541 575 515 522 q 567 682 567 628 q 515 814 567 775 q 354 853 463 853 q 150 828 263 853 l 113 819 l 106 893 q 374 931 236 931 q 584 873 513 931 q 656 689 656 815 q 613 522 656 593 q 468 350 569 451 l 201 75 l 682 75 l 682 0 z "},"3":{"ha":778,"x_min":89,"x_max":683,"o":"m 104 896 q 381 931 235 931 q 594 875 528 931 q 660 696 660 819 q 532 494 660 558 l 515 486 q 642 413 600 460 q 683 258 683 365 q 612 53 683 121 q 389 -14 540 -14 q 131 14 258 -14 l 89 22 l 97 94 q 382 64 246 64 q 594 254 594 64 q 393 442 594 432 l 207 442 l 207 517 l 392 517 q 513 565 454 517 q 571 697 571 614 q 526 817 571 781 q 371 854 481 854 q 147 832 261 854 l 113 825 l 104 896 z "},"4":{"ha":778,"x_min":56,"x_max":724,"o":"m 514 0 l 514 186 l 56 186 l 56 253 l 325 917 l 419 917 l 149 263 l 514 263 l 514 556 l 600 556 l 600 263 l 724 263 l 724 186 l 600 186 l 600 0 l 514 0 z "},"5":{"ha":778,"x_min":92,"x_max":697,"o":"m 657 917 l 657 838 l 203 838 l 178 514 q 406 575 289 575 q 697 306 697 575 q 617 69 697 150 q 392 -11 536 -11 q 136 17 274 -11 l 92 26 l 103 97 q 374 65 260 65 q 548 126 488 65 q 608 298 608 188 q 553 453 608 408 q 397 499 497 499 q 288 483 344 499 q 200 450 231 467 l 168 435 l 104 446 l 131 917 l 657 917 z "},"6":{"ha":778,"x_min":75,"x_max":713,"o":"m 664 839 q 422 853 543 853 q 232 765 300 853 q 164 511 164 676 l 200 525 q 407 569 318 569 q 713 289 713 569 q 631 65 713 144 q 396 -14 549 -14 q 75 464 75 -14 q 167 817 75 703 q 426 931 260 931 q 636 914 521 931 l 672 910 l 664 839 m 401 493 q 292 478 351 493 q 197 449 232 464 l 163 433 q 396 64 167 64 q 565 122 507 64 q 624 286 624 179 q 401 493 624 493 z "},"7":{"ha":778,"x_min":110,"x_max":675,"o":"m 110 839 l 110 917 l 675 917 l 675 794 l 315 -14 l 233 14 l 588 803 l 588 839 l 110 839 z "},"8":{"ha":778,"x_min":44,"x_max":731,"o":"m 146 872 q 189 901 146 872 q 386 931 232 931 q 628 872 540 931 q 717 696 717 813 q 678 562 717 610 q 550 481 639 514 q 685 395 639 447 q 731 249 731 343 q 386 -14 731 -14 q 139 44 233 -14 q 44 233 44 101 q 86 386 44 335 q 214 481 128 438 q 97 565 135 517 q 60 697 60 613 q 146 872 60 814 m 386 65 q 573 108 506 65 q 640 244 640 150 q 594 377 640 339 q 457 439 547 415 l 304 439 q 179 372 221 417 q 138 246 138 328 q 386 65 138 65 m 625 688 q 388 853 625 853 q 151 689 151 853 q 188 580 151 619 q 304 514 225 540 l 457 514 q 583 578 542 538 q 625 688 625 619 z "},"9":{"ha":778,"x_min":61,"x_max":701,"o":"m 106 79 q 353 64 226 64 q 613 406 610 64 l 572 392 q 358 350 446 350 q 61 626 61 350 q 147 848 61 765 q 375 931 232 931 q 621 805 540 931 q 701 439 701 679 q 611 92 701 199 q 343 -14 521 -14 q 133 3 239 -14 l 97 8 l 106 79 m 364 426 q 471 440 408 426 q 574 468 533 454 l 614 482 q 375 853 607 853 q 210 792 271 853 q 150 626 150 731 q 364 426 150 426 z "}," ":{"ha":306,"x_min":0,"x_max":0,"o":""},"!":{"ha":332,"x_min":121,"x_max":213,"o":"m 121 0 l 121 139 l 213 139 l 213 0 l 121 0 m 126 310 l 122 965 l 210 965 l 204 310 l 126 310 z "},"\"":{"ha":506,"x_min":96,"x_max":410,"o":"m 404 663 l 328 663 l 324 965 l 410 965 l 404 663 m 176 663 l 101 663 l 96 965 l 182 965 l 176 663 z "},"#":{"ha":778,"x_min":36,"x_max":740,"o":"m 740 250 l 582 250 l 582 0 l 504 0 l 504 250 l 272 250 l 272 0 l 194 0 l 194 250 l 36 250 l 36 322 l 194 322 l 194 601 l 36 601 l 36 674 l 194 674 l 194 926 l 272 926 l 272 674 l 504 674 l 504 926 l 582 926 l 582 674 l 740 674 l 740 601 l 582 601 l 582 322 l 740 322 l 740 250 m 504 322 l 504 601 l 272 601 l 272 322 l 504 322 z "},"$":{"ha":778,"x_min":100,"x_max":681,"o":"m 681 268 q 608 55 681 121 q 393 -11 535 -11 l 369 -11 l 349 -171 q 286 -161 286 -167 l 306 -7 l 107 14 l 117 85 q 315 65 224 71 l 364 438 q 249 467 293 451 q 169 511 206 483 q 100 690 100 563 q 390 931 100 931 q 428 929 414 931 l 450 1104 l 513 1104 l 489 925 l 660 906 l 654 835 q 479 853 560 846 l 435 504 q 624 427 567 476 q 681 268 681 378 m 183 696 q 224 574 183 608 q 374 517 265 539 l 418 857 l 396 857 q 183 696 183 857 m 390 63 q 597 247 597 63 q 559 371 597 338 q 425 425 521 404 l 379 63 l 390 63 z "},"%":{"ha":778,"x_min":44,"x_max":735,"o":"m 225 -4 l 500 939 l 558 921 l 283 -21 l 225 -4 m 44 742 q 193 931 44 931 q 342 740 342 931 q 302 594 342 643 q 193 546 263 546 q 84 594 124 546 q 44 742 44 643 m 115 742 q 193 607 115 607 q 254 640 236 607 q 272 740 272 672 q 254 838 272 807 q 194 869 236 869 q 133 838 151 869 q 115 742 115 807 m 436 182 q 585 371 436 371 q 735 181 735 371 q 694 35 735 83 q 585 -14 654 -14 q 476 35 515 -14 q 436 182 436 83 m 507 182 q 585 47 507 47 q 664 181 664 47 q 646 278 664 247 q 585 310 628 310 q 525 279 543 310 q 507 182 507 249 z "},"&":{"ha":951,"x_min":61,"x_max":921,"o":"m 204 768 q 265 915 204 860 q 438 969 325 969 q 608 915 550 969 q 665 763 665 860 q 615 609 665 665 q 446 503 565 553 l 674 276 q 701 386 688 313 q 717 514 714 460 l 799 513 q 736 222 781 332 l 921 46 l 869 -11 l 696 154 q 394 -14 603 -14 q 137 62 213 -14 q 61 272 61 138 q 112 467 61 407 q 281 564 163 528 q 219 660 233 618 q 204 768 204 703 m 390 63 q 638 206 567 63 l 331 510 q 186 432 228 481 q 144 281 144 383 q 390 63 144 63 m 288 757 q 350 599 288 661 l 393 554 q 540 638 499 596 q 581 758 581 681 q 434 897 581 897 q 288 757 288 897 z "},"'":{"ha":278,"x_min":96,"x_max":183,"o":"m 100 663 l 96 965 l 183 965 l 175 663 l 100 663 z "},"(":{"ha":350,"x_min":75,"x_max":296,"o":"m 206 726 q 185 631 206 726 q 164 419 164 536 q 197 153 164 301 q 264 -83 231 6 l 296 -174 l 215 -174 q 176 -82 200 -140 q 114 133 153 -24 q 75 394 75 289 q 90 594 75 500 q 125 764 104 689 q 200 1006 165 917 l 215 1042 l 296 1042 q 206 726 249 915 z "},")":{"ha":350,"x_min":56,"x_max":276,"o":"m 238 713 q 257 630 238 713 q 276 418 276 547 q 241 141 276 289 q 171 -90 206 -7 l 136 -174 l 56 -174 q 146 124 104 -54 q 188 419 188 301 q 155 692 188 536 q 89 944 122 847 l 56 1042 l 136 1042 q 175 941 151 1004 q 238 713 199 878 z "},"*":{"ha":582,"x_min":81,"x_max":513,"o":"m 513 714 l 326 714 l 383 538 l 325 519 l 267 697 l 117 588 l 81 636 l 232 746 l 82 856 l 119 906 l 269 796 l 326 972 l 386 953 l 329 775 l 513 775 l 513 714 z "},"+":{"ha":778,"x_min":79,"x_max":699,"o":"m 79 310 l 79 388 l 347 388 l 347 667 l 426 667 l 426 388 l 699 388 l 699 310 l 426 310 l 426 28 l 347 28 l 347 310 l 79 310 z "},",":{"ha":296,"x_min":53,"x_max":207,"o":"m 53 -171 l 114 138 l 207 138 l 122 -171 l 53 -171 z "},"-":{"ha":618,"x_min":99,"x_max":521,"o":"m 99 346 l 99 424 l 521 424 l 521 346 l 99 346 z "},".":{"ha":286,"x_min":97,"x_max":189,"o":"m 97 0 l 97 140 l 189 140 l 189 0 l 97 0 z "},"/":{"ha":553,"x_min":44,"x_max":508,"o":"m 44 15 l 433 981 l 508 951 l 121 -12 l 44 15 z "},":":{"ha":288,"x_min":97,"x_max":189,"o":"m 97 458 l 97 600 l 189 600 l 189 458 l 97 458 m 97 0 l 97 140 l 189 140 l 189 0 l 97 0 z "},";":{"ha":335,"x_min":74,"x_max":229,"o":"m 133 138 l 229 138 l 143 -171 l 74 -171 l 133 138 m 128 458 l 128 600 l 219 600 l 219 458 l 128 458 z "},"<":{"ha":778,"x_min":82,"x_max":665,"o":"m 665 588 l 167 350 l 665 108 l 665 19 l 82 311 l 82 386 l 665 675 l 665 588 z "},"=":{"ha":778,"x_min":90,"x_max":686,"o":"m 90 433 l 90 511 l 686 511 l 686 433 l 90 433 m 90 185 l 90 263 l 686 263 l 686 185 l 90 185 z "},">":{"ha":778,"x_min":111,"x_max":694,"o":"m 610 350 l 111 588 l 111 675 l 694 386 l 694 311 l 111 19 l 111 108 l 610 350 z "},"?":{"ha":624,"x_min":53,"x_max":564,"o":"m 564 757 q 539 623 564 669 q 439 513 514 576 q 333 410 364 449 q 303 324 303 371 l 303 274 l 231 274 q 218 353 218 308 q 252 443 218 399 q 359 551 286 488 q 456 651 432 614 q 479 761 479 689 q 431 868 479 833 q 278 903 382 903 q 100 878 208 903 l 61 868 l 53 939 q 285 979 200 979 q 494 927 425 979 q 564 757 564 875 m 219 1 l 219 140 l 311 140 l 311 1 l 219 1 z "},"@":{"ha":1357,"x_min":75,"x_max":1292,"o":"m 1292 424 l 1292 403 q 1200 28 1292 96 q 1135 -4 1167 3 q 1060 -11 1103 -11 q 986 -2 1017 -11 q 939 19 956 7 q 897 75 907 46 q 767 16 840 42 q 651 -10 694 -10 q 579 -4 608 -10 q 516 22 550 1 q 458 81 482 43 q 406 346 406 165 q 469 615 406 526 q 690 704 532 704 q 833 676 758 704 l 860 667 l 860 690 l 943 690 l 943 419 q 961 117 943 171 q 981 81 967 97 q 1012 63 994 65 q 1059 60 1029 60 q 1108 65 1089 60 q 1149 88 1128 69 q 1181 143 1169 107 q 1206 403 1206 232 l 1206 425 q 1089 809 1206 690 q 697 928 972 928 q 292 796 422 928 q 161 356 161 664 q 287 -79 161 47 q 700 -206 413 -206 l 899 -192 l 903 -267 q 700 -281 769 -281 q 428 -250 539 -281 q 235 -147 317 -219 q 75 347 75 -7 q 231 851 75 700 q 699 1001 388 1001 q 1151 860 1011 1001 q 1292 424 1292 719 m 874 136 q 864 251 868 158 q 860 399 860 343 l 860 597 q 701 629 769 629 q 533 560 578 629 q 489 338 489 490 q 542 111 489 167 q 660 65 588 65 q 874 136 732 65 z "},"A":{"ha":825,"x_min":35,"x_max":790,"o":"m 35 0 l 313 965 l 514 965 l 790 0 l 706 0 l 628 267 l 197 267 l 121 0 l 35 0 m 375 890 l 218 343 l 607 343 l 450 890 l 375 890 z "},"B":{"ha":857,"x_min":121,"x_max":781,"o":"m 121 965 l 464 965 q 749 722 749 965 q 621 497 749 551 q 781 268 781 447 q 705 61 781 122 q 485 0 629 0 l 121 0 l 121 965 m 475 454 l 207 454 l 207 76 l 483 76 q 639 119 585 76 q 693 271 693 163 q 475 454 693 454 m 461 889 l 207 889 l 207 529 l 474 529 q 616 576 571 529 q 661 714 661 622 q 612 847 661 806 q 461 889 563 889 z "},"C":{"ha":756,"x_min":86,"x_max":697,"o":"m 697 15 q 453 -14 554 -14 q 290 8 351 -14 q 189 68 228 29 q 128 169 150 107 q 86 479 86 283 q 186 894 86 793 q 436 979 268 979 q 697 950 551 979 l 693 875 q 461 901 549 901 q 326 883 374 901 q 248 833 278 864 q 203 746 218 801 q 175 510 175 651 q 185 298 175 368 q 222 171 194 228 q 304 89 250 114 q 454 64 358 64 q 693 90 550 64 l 697 15 z "},"D":{"ha":897,"x_min":121,"x_max":815,"o":"m 472 0 l 121 0 l 121 965 l 472 965 q 815 496 815 965 q 472 0 815 0 m 726 496 q 472 888 726 888 l 207 888 l 207 76 l 472 76 q 726 496 726 76 z "},"E":{"ha":767,"x_min":121,"x_max":700,"o":"m 121 0 l 121 965 l 700 965 l 700 888 l 207 888 l 207 529 l 617 529 l 617 453 l 207 453 l 207 76 l 700 76 l 700 0 l 121 0 z "},"F":{"ha":729,"x_min":121,"x_max":690,"o":"m 121 0 l 121 965 l 690 965 l 690 888 l 207 888 l 207 489 l 618 489 l 618 413 l 207 413 l 207 0 l 121 0 z "},"G":{"ha":857,"x_min":83,"x_max":763,"o":"m 500 411 l 500 488 l 763 488 l 763 21 q 621 -1 722 13 q 453 -14 519 -14 q 164 108 244 -14 q 83 479 83 231 q 100 690 83 603 q 158 846 117 778 q 451 979 238 979 q 717 953 582 979 l 763 943 l 758 869 q 458 901 585 901 q 231 801 290 901 q 172 481 172 700 q 231 163 172 261 q 457 64 290 64 q 678 86 556 64 l 678 411 l 500 411 z "},"H":{"ha":938,"x_min":121,"x_max":815,"o":"m 731 0 l 731 446 l 207 446 l 207 0 l 121 0 l 121 965 l 207 965 l 207 522 l 731 522 l 731 965 l 815 965 l 815 0 l 731 0 z "},"I":{"ha":328,"x_min":121,"x_max":207,"o":"m 121 0 l 121 965 l 207 965 l 207 0 l 121 0 z "},"J":{"ha":396,"x_min":25,"x_max":279,"o":"m 279 965 l 279 124 q 266 1 279 46 q 217 -67 253 -44 q 142 -94 182 -89 q 25 -100 101 -100 l 25 -24 q 111 -20 85 -24 q 160 0 138 -17 q 189 49 183 17 q 194 142 194 81 l 194 965 l 279 965 z "},"K":{"ha":782,"x_min":121,"x_max":758,"o":"m 207 0 l 121 0 l 121 965 l 207 965 l 207 510 l 374 514 l 642 965 l 740 965 l 449 481 l 758 0 l 656 0 l 375 436 l 207 433 l 207 0 z "},"L":{"ha":667,"x_min":121,"x_max":649,"o":"m 649 0 l 121 0 l 121 965 l 207 965 l 207 78 l 649 78 l 649 0 z "},"M":{"ha":1160,"x_min":121,"x_max":1039,"o":"m 121 0 l 121 965 l 282 965 l 581 121 l 878 965 l 1039 965 l 1039 0 l 953 0 l 953 876 l 933 876 l 631 32 l 529 32 l 226 876 l 207 876 l 207 0 l 121 0 z "},"N":{"ha":933,"x_min":121,"x_max":811,"o":"m 121 0 l 121 965 l 290 965 l 694 76 l 726 76 l 726 965 l 811 965 l 811 0 l 644 0 l 238 888 l 207 888 l 207 0 l 121 0 z "},"O":{"ha":919,"x_min":83,"x_max":838,"o":"m 172 478 q 231 160 172 257 q 460 64 289 64 q 690 158 632 64 q 749 474 749 253 q 688 799 749 696 q 460 901 626 901 q 228 790 288 901 q 184 660 196 733 q 172 478 172 586 m 838 475 q 838 346 838 475 q 756 101 838 217 q 460 -14 675 -14 q 165 104 246 -14 q 83 477 83 222 q 165 856 83 732 q 460 979 247 979 q 755 856 672 979 q 838 475 838 733 z "},"P":{"ha":824,"x_min":121,"x_max":774,"o":"m 474 336 l 207 336 l 207 0 l 121 0 l 121 965 l 474 965 q 701 890 628 965 q 774 660 774 815 q 474 336 774 336 m 207 413 l 474 413 q 685 660 685 413 q 635 833 685 778 q 474 889 585 889 l 207 889 l 207 413 z "},"Q":{"ha":919,"x_min":83,"x_max":838,"o":"m 460 -14 q 165 104 246 -14 q 83 477 83 222 q 165 856 83 732 q 460 979 247 979 q 755 856 672 979 q 838 478 838 733 q 801 189 838 296 q 675 32 764 82 l 793 -160 l 711 -199 l 590 1 q 460 -14 536 -14 m 172 478 q 231 160 172 257 q 460 64 289 64 q 690 158 632 64 q 749 474 749 251 q 688 799 749 696 q 460 901 626 901 q 228 790 288 901 q 184 660 196 733 q 172 478 172 586 z "},"R":{"ha":854,"x_min":121,"x_max":788,"o":"m 207 381 l 207 0 l 121 0 l 121 965 l 475 965 q 701 897 626 965 q 775 679 775 828 q 589 397 775 447 l 788 0 l 692 0 l 501 381 l 207 381 m 686 678 q 635 838 686 786 q 475 889 583 889 l 207 889 l 207 457 l 475 457 q 686 678 686 457 z "},"S":{"ha":751,"x_min":71,"x_max":682,"o":"m 382 904 q 158 733 158 904 q 209 599 158 633 q 408 535 260 564 q 619 454 556 506 q 682 282 682 403 q 605 58 682 126 q 379 -11 528 -11 q 128 8 271 -11 l 78 15 l 88 89 q 382 65 278 65 q 540 116 486 65 q 594 265 594 167 q 547 398 594 363 q 394 453 499 433 q 240 488 289 472 q 149 534 192 504 q 89 610 107 564 q 71 728 71 657 q 376 981 71 981 q 615 961 468 981 l 661 954 l 654 881 q 382 904 463 904 z "},"T":{"ha":731,"x_min":18,"x_max":713,"o":"m 18 888 l 18 965 l 713 965 l 713 888 l 410 888 l 410 0 l 324 0 l 324 888 l 18 888 z "},"U":{"ha":892,"x_min":115,"x_max":776,"o":"m 200 283 q 440 64 200 64 q 628 115 565 64 q 690 283 690 167 l 690 965 l 776 965 l 776 283 q 692 56 776 126 q 444 -14 607 -14 q 198 56 281 -14 q 115 283 115 126 l 115 965 l 200 965 l 200 283 z "},"V":{"ha":801,"x_min":36,"x_max":764,"o":"m 676 965 l 764 965 l 506 0 l 296 0 l 36 965 l 125 965 l 360 76 l 442 76 l 676 965 z "},"W":{"ha":1214,"x_min":46,"x_max":1168,"o":"m 46 965 l 133 965 l 308 76 l 354 76 l 557 954 l 658 954 l 860 76 l 906 76 l 1081 965 l 1168 965 l 969 0 l 797 0 l 607 847 l 417 0 l 244 0 l 46 965 z "},"X":{"ha":771,"x_min":29,"x_max":742,"o":"m 126 965 l 388 539 l 647 965 l 742 965 l 442 476 l 742 0 l 644 0 l 386 417 l 124 0 l 29 0 l 332 475 l 29 965 l 126 965 z "},"Y":{"ha":742,"x_min":18,"x_max":724,"o":"m 414 0 l 328 0 l 328 408 l 18 965 l 114 965 l 371 497 l 626 965 l 724 965 l 414 408 l 414 0 z "},"Z":{"ha":746,"x_min":60,"x_max":685,"o":"m 60 888 l 60 965 l 685 965 l 685 850 l 156 106 l 156 76 l 685 76 l 685 -1 l 60 -1 l 60 113 l 589 857 l 589 888 l 60 888 z "},"[":{"ha":447,"x_min":113,"x_max":390,"o":"m 390 1040 l 390 965 l 197 965 l 197 -96 l 390 -96 l 390 -171 l 113 -171 l 113 1040 l 390 1040 z "},"\\":{"ha":585,"x_min":42,"x_max":542,"o":"m 542 19 l 465 -12 l 42 946 l 117 979 l 542 19 z "},"]":{"ha":447,"x_min":57,"x_max":335,"o":"m 57 965 l 57 1040 l 335 1040 l 335 -171 l 57 -171 l 57 -96 l 250 -96 l 250 965 l 57 965 z "},"^":{"ha":778,"x_min":93,"x_max":689,"o":"m 599 444 l 386 833 l 183 444 l 93 444 l 347 917 l 425 917 l 689 444 l 599 444 z "},"_":{"ha":882,"x_min":143,"x_max":738,"o":"m 143 -133 l 738 -133 l 738 -208 l 143 -208 l 143 -133 z "},"`":{"ha":317,"x_min":4,"x_max":322,"o":"m 35 1024 l 322 889 l 296 831 l 4 951 l 35 1024 z "},"a":{"ha":693,"x_min":60,"x_max":672,"o":"m 582 488 l 582 115 q 672 54 588 64 l 668 -12 q 511 43 561 -12 q 250 -14 381 -14 q 108 40 157 -14 q 60 192 60 93 q 109 340 60 292 q 264 399 158 388 l 500 422 l 500 488 q 466 599 500 565 q 375 633 432 633 q 144 617 286 633 l 101 613 l 97 679 q 365 708 250 708 q 531 654 479 708 q 582 488 582 600 m 146 197 q 261 57 146 57 q 371 69 311 57 q 465 93 431 81 l 500 106 l 500 357 l 274 333 q 176 294 206 328 q 146 197 146 261 z "},"b":{"ha":724,"x_min":103,"x_max":650,"o":"m 403 708 q 596 628 542 708 q 650 349 650 547 q 581 69 650 151 q 325 -14 513 -14 q 139 -3 247 -14 l 103 0 l 103 1003 l 186 1003 l 186 657 q 403 708 294 708 m 186 69 q 342 61 283 61 q 449 78 401 61 q 522 134 496 94 q 556 224 547 174 q 564 358 564 275 q 528 569 564 506 q 396 633 493 633 q 296 622 349 633 q 214 597 243 610 l 186 586 l 186 69 z "},"c":{"ha":601,"x_min":75,"x_max":544,"o":"m 363 708 q 511 694 425 708 l 543 690 l 539 619 q 376 633 429 633 q 207 573 253 633 q 161 351 161 513 q 203 125 161 189 q 376 61 244 61 l 542 74 l 544 3 q 361 -14 421 -14 q 135 68 196 -14 q 75 350 75 150 q 141 629 75 550 q 363 708 207 708 z "},"d":{"ha":726,"x_min":74,"x_max":624,"o":"m 624 1003 l 624 0 l 540 0 l 540 51 q 318 -14 431 -14 q 229 -2 267 -14 q 153 44 192 10 q 74 322 74 115 q 140 618 74 528 q 365 708 207 708 q 540 690 426 708 l 540 1003 l 624 1003 m 214 107 q 266 71 240 81 q 333 61 292 61 q 427 76 374 61 q 511 106 481 92 l 540 121 l 540 618 q 368 635 429 635 q 205 563 250 635 q 160 339 160 490 q 214 107 160 161 z "},"e":{"ha":700,"x_min":74,"x_max":633,"o":"m 564 69 l 606 74 l 608 6 q 343 -14 451 -14 q 133 75 193 -12 q 74 344 74 163 q 360 708 74 708 q 565 630 497 708 q 633 379 633 551 l 631 313 l 158 313 q 202 123 158 185 q 352 61 246 61 q 564 69 458 61 m 158 382 l 550 382 q 505 578 550 519 q 360 636 460 636 q 210 576 261 636 q 158 382 158 515 z "},"f":{"ha":450,"x_min":42,"x_max":450,"o":"m 215 621 l 215 0 l 132 0 l 132 621 l 42 621 l 42 694 l 132 694 l 132 765 q 172 965 132 913 q 315 1017 213 1017 l 450 1010 l 450 939 q 328 942 368 942 q 239 906 263 942 q 215 764 215 869 l 215 694 l 425 694 l 425 621 l 215 621 z "},"g":{"ha":707,"x_min":74,"x_max":681,"o":"m 667 -106 q 667 -165 667 -106 q 591 -276 667 -224 q 356 -329 515 -329 q 135 -283 196 -329 q 74 -115 74 -237 q 99 -22 74 -57 q 186 60 124 14 q 151 154 151 82 q 185 242 151 176 l 196 263 q 82 472 82 310 q 333 708 82 708 q 458 694 404 708 l 479 690 l 681 694 l 681 621 l 542 624 q 592 459 592 574 q 528 292 592 344 q 329 240 465 240 q 258 246 289 240 q 231 160 231 178 q 258 103 231 114 q 419 92 285 93 q 610 52 554 92 q 667 -106 667 13 m 157 -110 q 199 -225 157 -193 q 360 -257 240 -257 q 531 -223 479 -257 q 582 -109 582 -189 q 544 -6 582 -29 q 401 18 507 18 l 244 24 q 175 -40 193 -12 q 157 -110 157 -67 m 167 473 q 167 428 167 473 q 206 347 167 383 q 337 310 244 310 q 468 346 429 310 q 507 473 507 382 q 468 601 507 564 q 337 639 429 639 q 206 601 244 639 q 167 473 167 563 z "},"h":{"ha":740,"x_min":104,"x_max":643,"o":"m 186 0 l 104 0 l 104 1003 l 186 1003 l 186 654 q 411 708 303 708 q 597 635 550 708 q 643 365 643 561 l 643 0 l 560 0 l 560 361 q 530 577 560 521 q 400 633 500 633 q 298 622 351 633 q 215 597 244 610 l 186 586 l 186 0 z "},"i":{"ha":290,"x_min":104,"x_max":186,"o":"m 104 0 l 104 694 l 186 694 l 186 0 l 104 0 m 104 868 l 104 972 l 186 972 l 186 868 l 104 868 z "},"j":{"ha":290,"x_min":-74,"x_max":188,"o":"m 104 14 l 104 694 l 188 694 l 188 13 q 142 -174 188 -110 q -40 -307 97 -237 l -74 -240 q 72 -132 39 -176 q 104 14 104 -87 m 104 868 l 104 972 l 188 972 l 188 868 l 104 868 z "},"k":{"ha":653,"x_min":104,"x_max":625,"o":"m 186 0 l 104 0 l 104 1003 l 186 1003 l 186 406 l 304 408 l 518 694 l 614 694 l 376 376 l 625 0 l 528 0 l 306 335 l 186 332 l 186 0 z "},"l":{"ha":307,"x_min":113,"x_max":194,"o":"m 113 0 l 113 1003 l 194 1003 l 194 0 l 113 0 z "},"m":{"ha":1160,"x_min":104,"x_max":1063,"o":"m 186 0 l 104 0 l 104 694 l 186 694 l 186 643 q 411 708 292 708 q 581 635 531 708 q 702 687 631 665 q 831 708 774 708 q 1016 635 969 708 q 1063 365 1063 563 l 1063 0 l 981 0 l 981 361 q 951 577 981 521 q 821 633 921 633 q 718 619 771 633 q 638 589 665 604 l 610 575 q 631 361 631 522 l 631 0 l 547 0 l 547 358 q 517 577 547 521 q 389 633 488 633 q 290 619 340 633 q 213 589 239 604 l 186 575 l 186 0 z "},"n":{"ha":740,"x_min":104,"x_max":644,"o":"m 186 0 l 104 0 l 104 694 l 186 694 l 186 643 q 413 708 303 708 q 598 635 551 708 q 644 365 644 561 l 644 0 l 561 0 l 561 361 q 531 577 561 521 q 400 633 500 633 q 298 619 351 633 q 215 589 244 604 l 186 575 l 186 0 z "},"o":{"ha":732,"x_min":75,"x_max":657,"o":"m 75 349 q 75 447 75 349 q 141 626 75 544 q 366 708 207 708 q 591 626 525 708 q 657 349 657 544 q 597 69 657 153 q 367 -14 536 -14 q 136 69 197 -14 q 75 349 75 153 m 161 351 q 161 268 161 351 q 199 123 161 186 q 366 60 238 60 q 533 124 494 60 q 572 351 572 188 q 528 574 572 514 q 367 635 485 635 q 205 575 249 635 q 161 351 161 515 z "},"p":{"ha":726,"x_min":104,"x_max":653,"o":"m 104 -312 l 104 694 l 186 694 l 186 642 q 415 708 294 708 q 594 624 535 708 q 653 348 653 539 q 583 72 653 157 q 353 -14 514 -14 q 186 4 267 -14 l 186 -312 l 104 -312 m 397 633 q 299 618 351 633 q 217 586 246 603 l 186 571 l 186 76 q 350 60 281 60 q 518 127 469 60 q 567 349 567 194 q 524 569 567 504 q 397 633 482 633 z "},"q":{"ha":724,"x_min":74,"x_max":619,"o":"m 331 -14 q 133 69 192 -14 q 74 346 74 153 q 145 624 74 539 q 397 708 217 708 l 619 694 l 619 -312 l 538 -312 l 538 35 q 331 -14 439 -14 m 399 635 q 208 566 258 635 q 158 346 158 497 q 199 128 158 194 q 338 61 239 61 q 435 72 385 61 q 511 94 485 83 l 538 107 l 538 626 q 399 635 443 635 z "},"r":{"ha":471,"x_min":104,"x_max":449,"o":"m 104 0 l 104 694 l 186 694 l 186 594 q 312 664 238 631 q 449 708 386 697 l 449 625 q 324 587 389 613 q 222 542 258 561 l 186 521 l 186 0 l 104 0 z "},"s":{"ha":644,"x_min":65,"x_max":581,"o":"m 314 632 q 150 514 150 632 q 186 438 150 460 q 349 394 222 415 q 528 335 476 372 q 581 191 581 297 q 513 35 581 85 q 313 -14 444 -14 q 115 6 236 -14 l 75 11 l 81 85 q 319 61 236 61 q 449 90 403 61 q 496 189 496 119 q 458 281 496 258 q 294 324 419 304 q 117 379 168 343 q 65 515 65 415 q 136 661 65 615 q 311 707 207 707 q 519 689 394 707 l 557 683 l 554 610 q 314 632 406 632 z "},"t":{"ha":482,"x_min":38,"x_max":468,"o":"m 456 621 l 224 621 l 224 278 q 243 101 224 143 q 335 60 263 60 l 463 69 l 468 -1 q 328 -15 376 -15 q 181 37 222 -15 q 140 236 140 89 l 140 621 l 38 621 l 38 694 l 140 694 l 140 913 l 224 913 l 224 694 l 456 694 l 456 621 z "},"u":{"ha":729,"x_min":97,"x_max":625,"o":"m 543 694 l 625 694 l 625 0 l 543 0 l 543 51 q 329 -14 436 -14 q 142 58 188 -14 q 97 332 97 131 l 97 694 l 179 694 l 179 333 q 209 117 179 172 q 339 61 239 61 q 439 76 388 61 q 517 106 490 90 l 543 119 l 543 694 z "},"v":{"ha":663,"x_min":38,"x_max":625,"o":"m 38 694 l 129 694 l 303 72 l 358 72 l 539 694 l 625 694 l 422 0 l 240 0 l 38 694 z "},"w":{"ha":1056,"x_min":46,"x_max":1010,"o":"m 46 694 l 131 694 l 283 72 l 303 72 l 483 681 l 571 681 l 751 72 l 772 72 l 925 694 l 1010 694 l 836 0 l 692 0 l 528 572 l 363 0 l 219 0 l 46 694 z "},"x":{"ha":619,"x_min":33,"x_max":586,"o":"m 33 694 l 126 694 l 310 408 l 493 694 l 586 694 l 360 349 l 585 0 l 493 0 l 310 285 l 126 0 l 33 0 l 257 347 l 33 694 z "},"y":{"ha":664,"x_min":38,"x_max":628,"o":"m 38 694 l 122 694 l 307 72 l 357 72 l 543 694 l 628 694 l 328 -312 l 244 -312 l 338 0 l 242 0 l 38 694 z "},"z":{"ha":632,"x_min":58,"x_max":574,"o":"m 58 619 l 58 694 l 574 694 l 574 619 l 161 75 l 574 75 l 574 0 l 58 0 l 58 75 l 471 619 l 58 619 z "},"{":{"ha":486,"x_min":36,"x_max":429,"o":"m 254 797 l 264 629 q 234 499 264 540 q 121 433 204 458 q 235 366 204 408 q 265 236 265 324 l 256 74 q 292 -55 256 -12 q 429 -103 329 -97 l 426 -176 q 231 -114 289 -171 q 174 68 174 -57 l 183 239 q 149 338 183 300 q 36 397 115 375 l 36 467 q 149 522 115 485 q 183 624 183 560 l 174 801 q 232 984 174 928 q 428 1046 290 1040 l 429 974 q 292 926 329 968 q 254 797 254 883 z "},"|":{"ha":307,"x_min":111,"x_max":194,"o":"m 111 -312 l 111 1003 l 194 1003 l 194 -312 l 111 -312 z "},"}":{"ha":486,"x_min":57,"x_max":450,"o":"m 231 74 l 221 236 q 251 366 221 324 q 365 433 282 408 q 252 499 282 458 q 222 629 222 540 l 232 797 q 194 926 232 883 q 57 974 157 968 l 58 1046 q 254 984 196 1040 q 313 801 313 928 l 303 624 q 337 522 303 560 q 450 467 371 485 l 450 397 q 337 338 371 375 q 303 239 303 300 l 313 68 q 255 -114 313 -57 q 60 -176 197 -171 l 57 -103 q 194 -55 157 -97 q 231 74 231 -12 z "},"~":{"ha":778,"x_min":94,"x_max":686,"o":"m 531 279 q 385 325 489 279 q 256 371 281 371 q 133 319 208 371 l 110 303 l 94 374 q 254 449 182 449 q 398 403 294 449 q 528 357 501 357 q 647 407 575 357 l 672 424 l 686 354 q 531 279 603 279 z "}," ":{"ha":306,"x_min":0,"x_max":0,"o":""},"¡":{"ha":304,"x_min":104,"x_max":196,"o":"m 196 694 l 196 556 l 104 556 l 104 694 l 196 694 m 190 385 l 194 -271 l 107 -271 l 113 385 l 190 385 z "},"¢":{"ha":778,"x_min":144,"x_max":614,"o":"m 389 -115 l 389 53 q 201 122 258 58 q 144 341 144 185 q 203 567 144 497 q 389 643 263 638 l 389 814 l 463 814 l 463 640 q 588 628 517 640 l 611 624 l 608 554 q 424 567 497 567 q 276 516 318 567 q 233 343 233 465 q 275 175 233 221 q 435 129 317 129 l 610 139 l 614 68 q 464 54 522 57 l 464 -115 l 389 -115 z "},"£":{"ha":778,"x_min":113,"x_max":664,"o":"m 611 839 q 432 854 497 854 q 342 812 367 854 q 317 642 317 769 l 317 574 l 558 574 l 558 500 l 317 500 l 317 75 l 540 75 l 650 97 l 664 25 l 551 0 l 113 0 l 113 75 l 233 75 l 233 500 l 140 500 l 140 574 l 233 574 l 233 647 q 278 872 233 815 q 435 929 322 929 q 583 914 500 929 l 613 908 l 611 839 z "},"¤":{"ha":778,"x_min":90,"x_max":688,"o":"m 531 149 q 388 104 467 104 q 246 149 310 104 l 150 51 l 90 111 l 188 207 q 143 349 143 271 q 188 492 143 428 l 90 589 l 150 649 l 246 550 q 388 596 313 596 q 531 550 464 596 l 628 649 l 688 589 l 589 492 q 635 349 635 425 q 589 207 635 274 l 688 111 l 628 51 l 531 149 m 269 231 q 294 206 269 231 q 389 181 319 181 q 508 231 458 181 q 558 350 558 281 q 508 469 558 419 q 389 519 458 519 q 269 469 319 519 q 219 350 219 419 q 269 231 219 281 z "},"¥":{"ha":778,"x_min":38,"x_max":740,"o":"m 79 446 l 79 519 l 289 519 l 38 917 l 133 917 l 390 521 l 643 917 l 740 917 l 492 519 l 697 519 l 697 446 l 447 446 l 433 418 l 433 310 l 699 310 l 699 236 l 433 236 l 433 0 l 347 0 l 347 236 l 81 236 l 81 310 l 347 310 l 347 418 l 335 446 l 79 446 z "},"¦":{"ha":313,"x_min":114,"x_max":197,"o":"m 114 1003 l 197 1003 l 197 482 l 114 482 l 114 1003 m 114 211 l 197 211 l 197 -312 l 114 -312 l 114 211 z "},"§":{"ha":686,"x_min":78,"x_max":603,"o":"m 94 696 q 353 908 94 908 q 540 892 422 908 l 576 888 l 572 817 q 343 835 422 835 q 176 699 176 835 q 219 594 176 622 q 381 546 263 567 q 551 485 499 525 q 603 349 603 446 q 582 243 603 296 q 546 168 561 190 q 596 33 596 129 q 340 -194 596 -194 q 142 -178 263 -194 l 101 -172 l 108 -101 q 338 -122 261 -122 q 515 29 515 -122 q 474 122 515 99 q 310 165 432 144 q 133 228 189 185 q 78 368 78 271 q 108 475 78 424 q 156 540 138 526 q 94 696 94 586 m 213 510 q 161 373 161 433 q 201 283 161 313 q 338 238 240 254 q 482 201 436 222 q 506 260 493 213 q 519 339 519 308 q 481 433 519 407 q 345 477 442 460 q 213 510 249 494 z "},"¨":{"ha":317,"x_min":-11,"x_max":343,"o":"m -11 871 l -11 982 l 71 982 l 71 871 l -11 871 m 263 871 l 263 982 l 343 982 l 343 871 l 263 871 z "},"©":{"ha":897,"x_min":86,"x_max":810,"o":"m 449 228 q 371 228 449 228 q 190 337 293 228 q 86 603 86 446 q 190 869 86 761 q 449 978 293 978 q 708 869 606 978 q 810 601 810 760 q 708 335 810 443 q 449 228 606 228 m 229 830 q 185 783 229 830 q 142 603 142 736 q 229 376 142 469 q 448 282 317 282 q 667 375 579 282 q 756 602 756 468 q 667 830 756 736 q 448 924 579 924 q 229 830 317 924 m 451 386 q 328 439 364 386 q 293 602 293 492 q 328 766 293 713 q 453 819 363 819 q 543 811 507 819 l 557 807 l 554 743 q 448 753 499 753 q 380 718 397 753 q 363 604 363 683 q 382 489 363 525 q 454 453 401 453 l 554 463 l 557 400 q 451 386 503 386 z "},"ª":{"ha":525,"x_min":79,"x_max":447,"o":"m 403 783 l 403 594 q 447 568 415 576 l 444 511 q 344 544 378 511 q 201 511 264 511 q 109 544 139 511 q 79 632 79 576 q 201 747 79 739 l 331 756 l 331 786 q 314 837 331 822 q 261 851 297 851 l 107 842 l 104 897 q 267 915 200 915 q 369 885 335 915 q 403 783 403 856 m 214 693 q 153 631 153 689 q 206 574 153 574 q 311 592 253 574 l 331 599 l 331 700 l 214 693 z "},"«":{"ha":726,"x_min":64,"x_max":629,"o":"m 315 486 l 136 349 l 315 197 l 315 108 l 64 311 l 64 382 l 315 574 l 315 486 m 629 486 l 450 349 l 629 197 l 629 108 l 378 311 l 378 382 l 629 574 l 629 486 z "},"¬":{"ha":778,"x_min":93,"x_max":685,"o":"m 93 469 l 685 469 l 685 167 l 606 167 l 606 393 l 93 393 l 93 469 z "},"®":{"ha":897,"x_min":86,"x_max":810,"o":"m 449 228 q 371 228 449 228 q 190 337 293 228 q 86 603 86 446 q 189 869 86 761 q 448 978 292 978 q 707 869 604 978 q 810 601 810 760 q 708 335 810 443 q 449 228 606 228 m 229 830 q 185 783 229 830 q 142 603 142 736 q 229 376 142 469 q 448 282 317 282 q 667 375 579 282 q 756 602 756 468 q 667 830 756 736 q 448 924 579 924 q 229 830 317 924 m 367 547 l 367 393 l 300 393 l 300 810 l 444 810 q 563 781 524 810 q 601 681 601 751 q 526 556 601 582 l 608 393 l 538 393 l 458 547 l 367 547 m 367 753 l 367 604 l 460 604 q 518 622 500 604 q 536 679 536 639 q 513 736 536 719 q 440 753 489 753 l 367 753 z "},"¯":{"ha":317,"x_min":-22,"x_max":356,"o":"m -22 876 l -22 944 l 356 944 l 356 876 l -22 876 z "},"°":{"ha":778,"x_min":194,"x_max":582,"o":"m 249 646 q 222 672 249 646 q 194 785 194 699 q 249 925 194 871 q 389 979 303 979 q 528 925 475 979 q 582 785 582 871 q 528 646 582 699 q 389 593 475 593 q 249 646 303 593 m 293 883 q 275 864 293 883 q 257 785 257 846 q 293 688 257 724 q 390 651 329 651 q 487 688 450 651 q 524 785 524 725 q 487 882 524 844 q 390 919 450 919 q 293 883 329 919 z "},"±":{"ha":778,"x_min":79,"x_max":699,"o":"m 79 414 l 79 492 l 347 492 l 347 672 l 426 672 l 426 492 l 699 492 l 699 414 l 426 414 l 426 229 l 347 229 l 347 414 l 79 414 m 79 136 l 699 136 l 699 58 l 79 58 l 79 136 z "},"²":{"ha":389,"x_min":44,"x_max":326,"o":"m 326 664 l 44 664 l 44 728 l 172 860 q 227 924 210 897 q 244 982 244 950 q 172 1042 244 1042 l 51 1029 l 49 1093 q 186 1110 126 1110 q 319 988 319 1110 q 300 907 319 940 q 233 828 281 874 l 138 731 l 326 731 l 326 664 z "},"³":{"ha":389,"x_min":46,"x_max":342,"o":"m 51 1096 q 196 1110 129 1110 q 297 1083 263 1110 q 331 996 331 1056 q 317 939 331 964 q 272 893 297 904 q 325 858 308 882 q 342 783 342 835 q 199 650 342 650 q 69 661 147 650 l 46 665 l 50 729 q 197 718 128 718 q 267 785 267 718 q 196 854 267 854 l 106 854 l 106 918 l 194 918 q 236 939 217 918 q 256 989 256 960 q 185 1043 256 1043 q 75 1035 131 1043 l 56 1032 l 51 1096 z "},"´":{"ha":372,"x_min":43,"x_max":361,"o":"m 43 889 l 331 1024 l 361 951 l 69 831 l 43 889 z "},"µ":{"ha":778,"x_min":124,"x_max":651,"o":"m 569 694 l 651 694 l 651 0 l 569 0 l 569 51 q 360 -14 463 -14 q 206 21 257 -14 l 206 -312 l 124 -312 l 124 694 l 206 694 l 206 333 q 235 117 206 172 q 365 61 265 61 q 465 76 414 61 q 543 106 517 90 l 569 119 l 569 694 z "},"¶":{"ha":821,"x_min":51,"x_max":767,"o":"m 576 0 l 576 892 l 396 892 l 396 0 l 319 0 l 319 464 l 310 464 q 125 533 199 464 q 51 713 51 603 q 125 894 51 824 q 310 965 199 965 l 767 965 l 767 892 l 653 892 l 653 0 l 576 0 z "},"·":{"ha":288,"x_min":99,"x_max":190,"o":"m 99 339 l 99 479 l 190 479 l 190 339 l 99 339 z "},"¸":{"ha":365,"x_min":63,"x_max":303,"o":"m 303 -176 q 179 -293 303 -293 l 63 -285 l 65 -229 q 164 -233 122 -233 q 226 -176 226 -233 q 164 -125 226 -125 l 99 -125 l 99 1 l 151 1 l 151 -72 q 267 -94 232 -72 q 303 -176 303 -115 z "},"¹":{"ha":389,"x_min":51,"x_max":261,"o":"m 261 1097 l 261 664 l 188 664 l 188 1015 l 86 946 l 51 1001 l 192 1097 l 261 1097 z "},"º":{"ha":514,"x_min":78,"x_max":433,"o":"m 257 915 q 390 867 346 915 q 433 715 433 818 q 257 511 433 511 q 78 713 78 511 q 257 915 78 915 m 179 612 q 191 596 179 612 q 257 581 203 581 q 334 612 311 581 q 357 715 357 643 q 335 816 357 786 q 258 846 313 846 q 179 816 203 846 q 156 715 156 786 q 179 612 156 643 z "},"»":{"ha":726,"x_min":97,"x_max":663,"o":"m 589 349 l 411 486 l 411 574 l 663 382 l 663 311 l 411 108 l 411 197 l 589 349 m 275 349 l 97 486 l 97 574 l 349 382 l 349 311 l 97 108 l 97 197 l 275 349 z "},"¼":{"ha":738,"x_min":50,"x_max":689,"o":"m 267 1097 l 267 664 l 193 664 l 193 1015 l 92 946 l 57 1001 l 197 1097 l 267 1097 m 50 39 l 594 915 l 644 883 l 100 8 l 50 39 m 572 -139 l 572 -68 l 375 -68 l 375 -4 l 481 294 l 561 294 l 453 0 l 572 0 l 578 122 l 646 122 l 646 0 l 689 0 l 689 -68 l 646 -68 l 646 -139 l 572 -139 z "},"½":{"ha":729,"x_min":47,"x_max":665,"o":"m 274 1097 l 274 664 l 200 664 l 200 1015 l 99 946 l 64 1001 l 204 1097 l 274 1097 m 47 39 l 592 915 l 642 883 l 97 8 l 47 39 m 665 -139 l 383 -139 l 383 -75 l 511 57 q 566 121 549 94 q 583 179 583 147 q 511 239 583 239 l 390 226 l 388 290 q 525 307 465 307 q 658 185 658 307 q 639 104 658 138 q 572 25 619 71 l 476 -72 l 665 -72 l 665 -139 z "},"¾":{"ha":760,"x_min":74,"x_max":714,"o":"m 79 1096 q 224 1110 157 1110 q 324 1083 290 1110 q 358 996 358 1056 q 344 939 358 964 q 300 893 325 904 q 353 858 336 882 q 369 783 369 835 q 226 650 369 650 q 97 661 175 650 l 74 665 l 78 729 q 225 718 156 718 q 294 785 294 718 q 224 854 294 854 l 133 854 l 133 918 l 222 918 q 264 939 244 918 q 283 989 283 960 q 213 1043 283 1043 q 103 1035 158 1043 l 83 1032 l 79 1096 m 75 39 l 619 915 l 669 883 l 125 8 l 75 39 m 597 -139 l 597 -68 l 400 -68 l 400 -4 l 506 294 l 586 294 l 478 0 l 597 0 l 603 122 l 671 122 l 671 0 l 714 0 l 714 -68 l 671 -68 l 671 -139 l 597 -139 z "},"¿":{"ha":615,"x_min":56,"x_max":567,"o":"m 56 -61 q 81 73 56 26 q 181 183 106 119 q 286 286 256 247 q 317 372 317 325 l 317 422 l 389 422 q 401 342 401 388 q 367 253 401 297 q 260 145 333 208 q 164 44 188 82 q 140 -65 140 7 q 189 -172 140 -137 q 342 -207 238 -207 q 519 -181 399 -207 l 558 -172 l 567 -243 q 335 -283 419 -283 q 125 -231 194 -283 q 56 -61 56 -179 m 400 694 l 400 556 l 308 556 l 308 694 l 400 694 z "},"À":{"ha":825,"x_min":35,"x_max":790,"o":"m 35 0 l 313 965 l 514 965 l 790 0 l 706 0 l 628 267 l 197 267 l 121 0 l 35 0 m 375 890 l 218 343 l 607 343 l 450 890 l 375 890 m 264 1289 l 551 1151 l 524 1092 l 233 1214 l 264 1289 z "},"Á":{"ha":825,"x_min":35,"x_max":790,"o":"m 35 0 l 313 965 l 514 965 l 790 0 l 706 0 l 628 267 l 197 267 l 121 0 l 35 0 m 375 890 l 218 343 l 607 343 l 450 890 l 375 890 m 267 1151 l 554 1289 l 585 1214 l 294 1092 l 267 1151 z "},"Â":{"ha":825,"x_min":35,"x_max":790,"o":"m 35 0 l 313 965 l 514 965 l 790 0 l 706 0 l 628 267 l 197 267 l 121 0 l 35 0 m 375 890 l 218 343 l 607 343 l 450 890 l 375 890 m 189 1108 l 375 1290 l 447 1290 l 633 1108 l 538 1108 l 413 1228 l 286 1108 l 189 1108 z "},"Ã":{"ha":825,"x_min":35,"x_max":790,"o":"m 35 0 l 313 965 l 514 965 l 790 0 l 706 0 l 628 267 l 197 267 l 121 0 l 35 0 m 375 890 l 218 343 l 607 343 l 450 890 l 375 890 m 518 1131 q 405 1170 490 1131 q 303 1210 319 1210 q 219 1158 271 1210 l 201 1140 l 181 1204 q 299 1282 246 1282 q 419 1244 335 1282 q 519 1206 503 1206 q 596 1253 546 1206 l 613 1269 l 633 1207 q 518 1131 569 1131 z "},"Ä":{"ha":825,"x_min":35,"x_max":790,"o":"m 35 0 l 313 965 l 514 965 l 790 0 l 706 0 l 628 267 l 197 267 l 121 0 l 35 0 m 375 890 l 218 343 l 607 343 l 450 890 l 375 890 m 232 1138 l 232 1249 l 314 1249 l 314 1138 l 232 1138 m 511 1138 l 511 1249 l 592 1249 l 592 1138 l 511 1138 z "},"Å":{"ha":825,"x_min":35,"x_max":790,"o":"m 410 1181 q 444 1181 410 1181 q 520 1143 478 1181 q 563 1041 563 1106 q 521 939 563 976 l 790 0 l 706 0 l 628 267 l 197 267 l 121 0 l 35 0 l 303 935 q 257 1039 257 972 q 299 1143 257 1106 q 410 1181 342 1181 m 375 890 l 218 343 l 607 343 l 450 890 l 375 890 m 322 1042 q 383 965 322 976 l 436 965 q 497 1042 497 976 q 474 1099 497 1079 q 410 1119 451 1119 q 345 1099 368 1119 q 322 1042 322 1079 z "},"Æ":{"ha":1218,"x_min":31,"x_max":1150,"o":"m 572 0 l 572 264 l 211 264 l 119 0 l 31 0 l 356 968 l 1150 968 l 1150 888 l 657 888 l 657 538 l 1067 538 l 1067 457 l 657 457 l 657 81 l 1150 81 l 1150 0 l 572 0 m 572 346 l 572 888 l 418 888 l 235 346 l 572 346 z "},"Ç":{"ha":756,"x_min":86,"x_max":697,"o":"m 600 -176 q 476 -293 600 -293 l 360 -285 l 363 -229 q 461 -233 419 -233 q 524 -176 524 -233 q 461 -125 524 -125 l 396 -125 l 396 -12 q 146 129 211 -1 q 99 278 113 196 q 86 470 86 360 q 94 653 86 581 q 125 791 103 726 q 186 894 147 856 q 436 979 268 979 q 697 950 551 979 l 693 875 q 461 901 549 901 q 326 883 374 901 q 248 833 278 864 q 203 746 218 801 q 175 510 175 651 q 185 298 175 368 q 222 171 194 228 q 304 89 250 114 q 454 64 358 64 q 693 90 550 64 l 697 15 q 449 -14 569 -12 l 449 -72 q 565 -94 529 -72 q 600 -176 600 -115 z "},"È":{"ha":767,"x_min":121,"x_max":700,"o":"m 121 0 l 121 965 l 700 965 l 700 888 l 207 888 l 207 529 l 617 529 l 617 453 l 207 453 l 207 76 l 700 76 l 700 0 l 121 0 m 276 1289 l 564 1151 l 536 1092 l 246 1214 l 276 1289 z "},"É":{"ha":767,"x_min":121,"x_max":700,"o":"m 121 0 l 121 965 l 700 965 l 700 888 l 207 888 l 207 529 l 617 529 l 617 453 l 207 453 l 207 76 l 700 76 l 700 0 l 121 0 m 253 1151 l 540 1289 l 571 1214 l 281 1092 l 253 1151 z "},"Ê":{"ha":767,"x_min":121,"x_max":700,"o":"m 121 0 l 121 965 l 700 965 l 700 888 l 207 888 l 207 529 l 617 529 l 617 453 l 207 453 l 207 76 l 700 76 l 700 0 l 121 0 m 183 1108 l 369 1290 l 442 1290 l 628 1108 l 532 1108 l 407 1228 l 281 1108 l 183 1108 z "},"Ë":{"ha":767,"x_min":121,"x_max":700,"o":"m 121 0 l 121 965 l 700 965 l 700 888 l 207 888 l 207 529 l 617 529 l 617 453 l 207 453 l 207 76 l 700 76 l 700 0 l 121 0 m 229 1138 l 229 1249 l 311 1249 l 311 1138 l 229 1138 m 508 1138 l 508 1249 l 589 1249 l 589 1138 l 508 1138 z "},"Ì":{"ha":328,"x_min":-26,"x_max":292,"o":"m 121 0 l 121 965 l 207 965 l 207 0 l 121 0 m 4 1289 l 292 1151 l 264 1092 l -26 1214 l 4 1289 z "},"Í":{"ha":328,"x_min":19,"x_max":338,"o":"m 121 0 l 121 965 l 207 965 l 207 0 l 121 0 m 19 1151 l 307 1289 l 338 1214 l 47 1092 l 19 1151 z "},"Î":{"ha":328,"x_min":-65,"x_max":379,"o":"m 121 0 l 121 965 l 207 965 l 207 0 l 121 0 m -65 1108 l 121 1290 l 193 1290 l 379 1108 l 283 1108 l 158 1228 l 32 1108 l -65 1108 z "},"Ï":{"ha":328,"x_min":-17,"x_max":343,"o":"m 121 0 l 121 965 l 207 965 l 207 0 l 121 0 m -17 1138 l -17 1249 l 65 1249 l 65 1138 l -17 1138 m 263 1138 l 263 1249 l 343 1249 l 343 1138 l 263 1138 z "},"Ð":{"ha":901,"x_min":26,"x_max":819,"o":"m 26 444 l 26 525 l 125 525 l 125 968 l 475 968 q 819 499 819 968 q 475 0 819 0 l 125 0 l 125 444 l 26 444 m 731 499 q 475 888 731 888 l 210 888 l 210 525 l 439 525 l 439 444 l 210 444 l 210 81 l 475 81 q 599 116 547 81 q 679 214 651 151 q 731 499 731 329 z "},"Ñ":{"ha":933,"x_min":121,"x_max":811,"o":"m 121 0 l 121 965 l 290 965 l 694 76 l 726 76 l 726 965 l 811 965 l 811 0 l 644 0 l 238 888 l 207 888 l 207 0 l 121 0 m 575 1131 q 462 1170 547 1131 q 358 1210 376 1210 q 275 1158 328 1210 l 258 1140 l 238 1204 q 356 1282 303 1282 q 476 1244 392 1282 q 576 1206 561 1206 q 653 1253 603 1206 l 669 1269 l 690 1207 q 575 1131 626 1131 z "},"Ò":{"ha":919,"x_min":83,"x_max":838,"o":"m 172 478 q 231 160 172 257 q 460 64 289 64 q 690 158 632 64 q 749 474 749 253 q 688 799 749 696 q 460 901 626 901 q 228 790 288 901 q 184 660 196 733 q 172 478 172 586 m 838 475 q 838 346 838 475 q 756 101 838 217 q 460 -14 675 -14 q 165 104 246 -14 q 83 477 83 222 q 165 856 83 732 q 460 979 247 979 q 755 856 672 979 q 838 475 838 733 m 322 1289 l 610 1151 l 582 1092 l 292 1214 l 322 1289 z "},"Ó":{"ha":919,"x_min":83,"x_max":838,"o":"m 172 478 q 231 160 172 257 q 460 64 289 64 q 690 158 632 64 q 749 474 749 253 q 688 799 749 696 q 460 901 626 901 q 228 790 288 901 q 184 660 196 733 q 172 478 172 586 m 838 475 q 838 346 838 475 q 756 101 838 217 q 460 -14 675 -14 q 165 104 246 -14 q 83 477 83 222 q 165 856 83 732 q 460 979 247 979 q 755 856 672 979 q 838 475 838 733 m 286 1151 l 574 1289 l 604 1214 l 314 1092 l 286 1151 z "},"Ô":{"ha":919,"x_min":83,"x_max":838,"o":"m 172 478 q 231 160 172 257 q 460 64 289 64 q 690 158 632 64 q 749 474 749 253 q 688 799 749 696 q 460 901 626 901 q 228 790 288 901 q 184 660 196 733 q 172 478 172 586 m 838 475 q 838 346 838 475 q 756 101 838 217 q 460 -14 675 -14 q 165 104 246 -14 q 83 477 83 222 q 165 856 83 732 q 460 979 247 979 q 755 856 672 979 q 838 475 838 733 m 238 1108 l 424 1290 l 496 1290 l 682 1108 l 586 1108 l 461 1228 l 335 1108 l 238 1108 z "},"Õ":{"ha":919,"x_min":83,"x_max":838,"o":"m 172 478 q 231 160 172 257 q 460 64 289 64 q 690 158 632 64 q 749 474 749 253 q 688 799 749 696 q 460 901 626 901 q 228 790 288 901 q 184 660 196 733 q 172 478 172 586 m 838 475 q 838 346 838 475 q 756 101 838 217 q 460 -14 675 -14 q 165 104 246 -14 q 83 477 83 222 q 165 856 83 732 q 460 979 247 979 q 755 856 672 979 q 838 475 838 733 m 567 1131 q 453 1170 539 1131 q 350 1210 368 1210 q 267 1158 319 1210 l 250 1140 l 229 1204 q 347 1282 294 1282 q 468 1244 383 1282 q 568 1206 553 1206 q 644 1253 594 1206 l 661 1269 l 682 1207 q 567 1131 618 1131 z "},"Ö":{"ha":919,"x_min":83,"x_max":838,"o":"m 172 478 q 231 160 172 257 q 460 64 289 64 q 690 158 632 64 q 749 474 749 253 q 688 799 749 696 q 460 901 626 901 q 228 790 288 901 q 184 660 196 733 q 172 478 172 586 m 838 475 q 838 346 838 475 q 756 101 838 217 q 460 -14 675 -14 q 165 104 246 -14 q 83 477 83 222 q 165 856 83 732 q 460 979 247 979 q 755 856 672 979 q 838 475 838 733 m 281 1138 l 281 1249 l 363 1249 l 363 1138 l 281 1138 m 560 1138 l 560 1249 l 640 1249 l 640 1138 l 560 1138 z "},"×":{"ha":778,"x_min":104,"x_max":674,"o":"m 158 633 l 389 400 l 619 633 l 674 579 l 440 349 l 674 118 l 619 63 l 389 296 l 158 64 l 104 118 l 336 349 l 104 578 l 158 633 z "},"Ø":{"ha":919,"x_min":83,"x_max":838,"o":"m 460 -14 q 286 13 361 -14 l 207 -158 l 142 -129 l 224 46 q 115 206 147 101 q 83 478 83 311 q 165 856 83 732 q 460 979 247 979 q 644 946 569 979 l 719 1106 l 785 1079 l 704 908 q 838 478 838 801 q 756 101 838 217 q 460 -14 675 -14 m 227 790 q 211 762 227 790 q 184 660 196 733 q 172 464 172 586 q 191 257 172 342 q 260 125 210 172 l 610 871 q 460 901 549 901 q 315 874 372 901 q 227 790 258 847 m 460 64 q 690 158 632 64 q 749 493 749 253 q 667 826 749 733 l 321 86 q 460 64 375 64 z "},"Ù":{"ha":892,"x_min":115,"x_max":776,"o":"m 200 283 q 440 64 200 64 q 628 115 565 64 q 690 283 690 167 l 690 965 l 776 965 l 776 283 q 692 56 776 126 q 444 -14 607 -14 q 198 56 281 -14 q 115 283 115 126 l 115 965 l 200 965 l 200 283 m 310 1289 l 597 1151 l 569 1092 l 279 1214 l 310 1289 z "},"Ú":{"ha":892,"x_min":115,"x_max":776,"o":"m 200 283 q 440 64 200 64 q 628 115 565 64 q 690 283 690 167 l 690 965 l 776 965 l 776 283 q 692 56 776 126 q 444 -14 607 -14 q 198 56 281 -14 q 115 283 115 126 l 115 965 l 200 965 l 200 283 m 285 1151 l 572 1289 l 603 1214 l 313 1092 l 285 1151 z "},"Û":{"ha":892,"x_min":115,"x_max":776,"o":"m 200 283 q 440 64 200 64 q 628 115 565 64 q 690 283 690 167 l 690 965 l 776 965 l 776 283 q 692 56 776 126 q 444 -14 607 -14 q 198 56 281 -14 q 115 283 115 126 l 115 965 l 200 965 l 200 283 m 222 1108 l 408 1290 l 481 1290 l 667 1108 l 571 1108 l 446 1228 l 319 1108 l 222 1108 z "},"Ü":{"ha":892,"x_min":115,"x_max":776,"o":"m 200 283 q 440 64 200 64 q 628 115 565 64 q 690 283 690 167 l 690 965 l 776 965 l 776 283 q 692 56 776 126 q 444 -14 607 -14 q 198 56 281 -14 q 115 283 115 126 l 115 965 l 200 965 l 200 283 m 265 1138 l 265 1249 l 347 1249 l 347 1138 l 265 1138 m 544 1138 l 544 1249 l 625 1249 l 625 1138 l 544 1138 z "},"Ý":{"ha":742,"x_min":18,"x_max":724,"o":"m 414 0 l 328 0 l 328 408 l 18 965 l 114 965 l 371 497 l 626 965 l 724 965 l 414 408 l 414 0 m 243 1151 l 531 1289 l 561 1214 l 271 1092 l 243 1151 z "},"Þ":{"ha":833,"x_min":121,"x_max":774,"o":"m 474 257 q 686 504 686 257 q 635 673 686 619 q 474 726 585 726 l 207 726 l 207 257 l 474 257 m 474 175 l 207 175 l 207 0 l 121 0 l 121 968 l 207 968 l 207 807 l 474 807 q 701 733 628 807 q 774 503 774 660 q 699 260 774 346 q 474 175 625 175 z "},"ß":{"ha":783,"x_min":104,"x_max":731,"o":"m 186 0 l 104 0 l 104 765 q 164 961 104 906 q 363 1017 224 1017 q 560 971 501 1017 q 619 821 619 925 q 594 708 619 749 q 515 642 569 667 q 444 605 460 618 q 428 571 428 592 q 451 532 428 550 q 563 469 474 514 q 692 378 653 424 q 731 250 731 333 q 667 47 731 108 q 453 -14 604 -14 q 308 0 388 -14 l 279 4 l 283 76 q 447 63 397 63 q 600 105 557 63 q 643 224 643 147 q 613 335 643 301 q 491 413 582 368 q 371 488 400 458 q 342 565 342 518 q 367 638 342 613 q 444 688 392 664 q 515 739 497 711 q 532 826 532 767 q 495 913 532 885 q 362 940 458 940 q 226 901 265 940 q 186 751 186 863 l 186 0 z "},"à":{"ha":693,"x_min":60,"x_max":672,"o":"m 582 488 l 582 115 q 672 54 588 64 l 668 -12 q 511 43 561 -12 q 250 -14 381 -14 q 108 40 157 -14 q 60 192 60 93 q 109 340 60 292 q 264 399 158 388 l 500 422 l 500 488 q 466 599 500 565 q 375 633 432 633 q 144 617 286 633 l 101 613 l 97 679 q 365 708 250 708 q 531 654 479 708 q 582 488 582 600 m 146 197 q 261 57 146 57 q 371 69 311 57 q 465 93 431 81 l 500 106 l 500 357 l 274 333 q 176 294 206 328 q 146 197 146 261 m 204 1024 l 492 889 l 465 831 l 174 951 l 204 1024 z "},"á":{"ha":693,"x_min":60,"x_max":672,"o":"m 582 488 l 582 115 q 672 54 588 64 l 668 -12 q 511 43 561 -12 q 250 -14 381 -14 q 108 40 157 -14 q 60 192 60 93 q 109 340 60 292 q 264 399 158 388 l 500 422 l 500 488 q 466 599 500 565 q 375 633 432 633 q 144 617 286 633 l 101 613 l 97 679 q 365 708 250 708 q 531 654 479 708 q 582 488 582 600 m 146 197 q 261 57 146 57 q 371 69 311 57 q 465 93 431 81 l 500 106 l 500 357 l 274 333 q 176 294 206 328 q 146 197 146 261 m 171 889 l 458 1024 l 489 951 l 197 831 l 171 889 z "},"â":{"ha":693,"x_min":60,"x_max":672,"o":"m 582 488 l 582 115 q 672 54 588 64 l 668 -12 q 511 43 561 -12 q 250 -14 381 -14 q 108 40 157 -14 q 60 192 60 93 q 109 340 60 292 q 264 399 158 388 l 500 422 l 500 488 q 466 599 500 565 q 375 633 432 633 q 144 617 286 633 l 101 613 l 97 679 q 365 708 250 708 q 531 654 479 708 q 582 488 582 600 m 146 197 q 261 57 146 57 q 371 69 311 57 q 465 93 431 81 l 500 106 l 500 357 l 274 333 q 176 294 206 328 q 146 197 146 261 m 136 826 l 306 1017 l 364 1017 l 535 826 l 447 826 l 336 954 l 224 826 l 136 826 z "},"ã":{"ha":693,"x_min":60,"x_max":672,"o":"m 582 488 l 582 115 q 672 54 588 64 l 668 -12 q 511 43 561 -12 q 250 -14 381 -14 q 108 40 157 -14 q 60 192 60 93 q 109 340 60 292 q 264 399 158 388 l 500 422 l 500 488 q 466 599 500 565 q 375 633 432 633 q 144 617 286 633 l 101 613 l 97 679 q 365 708 250 708 q 531 654 479 708 q 582 488 582 600 m 146 197 q 261 57 146 57 q 371 69 311 57 q 465 93 431 81 l 500 106 l 500 357 l 274 333 q 176 294 206 328 q 146 197 146 261 m 432 860 q 329 894 403 860 q 239 928 256 928 q 153 886 206 928 l 135 871 l 114 926 q 236 996 183 996 q 340 963 265 996 q 431 929 414 929 q 508 969 460 929 l 525 983 l 544 925 q 432 860 482 860 z "},"ä":{"ha":693,"x_min":60,"x_max":672,"o":"m 582 488 l 582 115 q 672 54 588 64 l 668 -12 q 511 43 561 -12 q 250 -14 381 -14 q 108 40 157 -14 q 60 192 60 93 q 109 340 60 292 q 264 399 158 388 l 500 422 l 500 488 q 466 599 500 565 q 375 633 432 633 q 144 617 286 633 l 101 613 l 97 679 q 365 708 250 708 q 531 654 479 708 q 582 488 582 600 m 146 197 q 261 57 146 57 q 371 69 311 57 q 465 93 431 81 l 500 106 l 500 357 l 274 333 q 176 294 206 328 q 146 197 146 261 m 160 871 l 160 982 l 242 982 l 242 871 l 160 871 m 433 871 l 433 982 l 514 982 l 514 871 l 433 871 z "},"å":{"ha":693,"x_min":60,"x_max":672,"o":"m 582 488 l 582 115 q 672 54 588 64 l 668 -12 q 511 43 561 -12 q 250 -14 381 -14 q 108 40 157 -14 q 60 192 60 93 q 109 340 60 292 q 264 399 158 388 l 500 422 l 500 488 q 466 599 500 565 q 375 633 432 633 q 144 617 286 633 l 101 613 l 97 679 q 365 708 250 708 q 531 654 479 708 q 582 488 582 600 m 146 197 q 261 57 146 57 q 371 69 311 57 q 465 93 431 81 l 500 106 l 500 357 l 274 333 q 176 294 206 328 q 146 197 146 261 m 351 758 q 321 758 351 758 q 251 799 292 758 q 211 898 211 839 q 251 997 211 957 q 351 1038 292 1038 q 450 997 410 1038 q 490 898 490 957 q 450 799 490 839 q 351 758 410 758 m 351 979 q 334 979 351 979 q 294 956 317 979 q 271 898 271 932 q 294 840 271 864 q 351 815 317 815 q 408 840 385 815 q 431 898 431 864 q 408 956 431 932 q 351 979 385 979 z "},"æ":{"ha":1124,"x_min":60,"x_max":1058,"o":"m 776 63 q 989 72 844 63 l 1029 75 l 1032 6 q 768 -14 876 -14 q 565 64 631 -14 l 518 43 q 244 -14 390 -14 q 60 196 60 -14 q 116 348 60 307 q 313 404 172 389 l 500 422 l 500 485 q 367 628 500 628 q 146 617 275 628 l 103 614 l 100 689 q 369 707 261 707 q 558 594 519 707 q 785 707 626 707 q 990 628 922 707 q 1058 379 1058 550 l 1054 313 l 582 313 q 627 124 583 185 q 776 63 671 63 m 254 60 q 529 118 378 60 q 497 353 497 194 l 274 332 q 176 294 207 325 q 146 197 146 263 q 174 95 146 131 q 254 60 203 60 m 582 382 l 974 382 q 928 575 974 517 q 785 633 883 633 q 582 382 582 633 z "},"ç":{"ha":601,"x_min":75,"x_max":544,"o":"m 493 -176 q 369 -293 493 -293 l 253 -285 l 256 -229 q 354 -233 313 -233 q 417 -176 417 -233 q 354 -125 417 -125 l 289 -125 l 289 -10 q 121 90 167 6 q 75 362 75 174 q 141 629 75 550 q 363 708 207 708 q 511 694 425 708 l 543 690 l 539 619 q 376 633 429 633 q 207 573 253 633 q 161 351 161 513 q 203 125 161 189 q 376 61 244 61 l 542 74 l 544 3 q 361 -14 421 -14 l 342 -14 l 342 -72 q 458 -94 422 -72 q 493 -176 493 -115 z "},"è":{"ha":700,"x_min":74,"x_max":633,"o":"m 564 69 l 606 74 l 608 6 q 343 -14 451 -14 q 133 75 193 -12 q 74 344 74 163 q 360 708 74 708 q 565 630 497 708 q 633 379 633 551 l 631 313 l 158 313 q 202 123 158 185 q 352 61 246 61 q 564 69 458 61 m 158 382 l 550 382 q 505 578 550 519 q 360 636 460 636 q 210 576 261 636 q 158 382 158 515 m 201 1025 l 489 890 l 463 832 l 171 953 l 201 1025 z "},"é":{"ha":700,"x_min":74,"x_max":633,"o":"m 564 69 l 606 74 l 608 6 q 343 -14 451 -14 q 133 75 193 -12 q 74 344 74 163 q 360 708 74 708 q 565 630 497 708 q 633 379 633 551 l 631 313 l 158 313 q 202 123 158 185 q 352 61 246 61 q 564 69 458 61 m 158 382 l 550 382 q 505 578 550 519 q 360 636 460 636 q 210 576 261 636 q 158 382 158 515 m 214 889 l 501 1024 l 532 951 l 240 831 l 214 889 z "},"ê":{"ha":700,"x_min":74,"x_max":633,"o":"m 564 69 l 606 74 l 608 6 q 343 -14 451 -14 q 133 75 193 -12 q 74 344 74 163 q 360 708 74 708 q 565 630 497 708 q 633 379 633 551 l 631 313 l 158 313 q 202 123 158 185 q 352 61 246 61 q 564 69 458 61 m 158 382 l 550 382 q 505 578 550 519 q 360 636 460 636 q 210 576 261 636 q 158 382 158 515 m 164 826 l 333 1017 l 392 1017 l 563 826 l 475 826 l 364 954 l 251 826 l 164 826 z "},"ë":{"ha":700,"x_min":74,"x_max":633,"o":"m 564 69 l 606 74 l 608 6 q 343 -14 451 -14 q 133 75 193 -12 q 74 344 74 163 q 360 708 74 708 q 565 630 497 708 q 633 379 633 551 l 631 313 l 158 313 q 202 123 158 185 q 352 61 246 61 q 564 69 458 61 m 158 382 l 550 382 q 505 578 550 519 q 360 636 460 636 q 210 576 261 636 q 158 382 158 515 m 178 871 l 178 982 l 260 982 l 260 871 l 178 871 m 451 871 l 451 982 l 532 982 l 532 871 l 451 871 z "},"ì":{"ha":290,"x_min":-83,"x_max":235,"o":"m 104 0 l 104 694 l 186 694 l 186 0 l 104 0 m -53 1024 l 235 889 l 208 831 l -83 951 l -53 1024 z "},"í":{"ha":290,"x_min":56,"x_max":374,"o":"m 56 889 l 343 1024 l 374 951 l 82 831 l 56 889 m 104 694 l 186 694 l 186 0 l 104 0 l 104 694 z "},"î":{"ha":290,"x_min":-56,"x_max":343,"o":"m 104 694 l 186 694 l 186 0 l 104 0 l 104 694 m -56 826 l 114 1017 l 172 1017 l 343 826 l 256 826 l 144 954 l 32 826 l -56 826 z "},"ï":{"ha":290,"x_min":-37,"x_max":317,"o":"m 104 694 l 186 694 l 186 0 l 104 0 l 104 694 m -37 871 l -37 982 l 44 982 l 44 871 l -37 871 m 236 871 l 236 982 l 317 982 l 317 871 l 236 871 z "},"ð":{"ha":754,"x_min":60,"x_max":678,"o":"m 453 900 q 678 488 678 760 q 606 102 678 217 q 365 -12 533 -12 q 140 67 221 -12 q 60 290 60 147 q 136 513 60 432 q 349 594 213 594 q 553 553 436 594 l 590 540 q 383 853 581 736 l 217 742 l 176 796 l 315 889 q 138 951 236 925 l 157 1017 q 386 938 289 986 l 528 1032 l 568 978 l 453 900 m 592 464 q 355 518 453 518 q 202 456 257 518 q 147 290 147 394 q 203 124 147 185 q 373 64 258 64 q 539 151 488 64 q 592 464 590 239 z "},"ñ":{"ha":740,"x_min":104,"x_max":644,"o":"m 104 0 l 104 694 l 186 694 l 186 643 l 218 658 q 307 692 250 675 q 413 708 364 708 q 598 635 551 708 q 644 365 644 561 q 644 0 644 365 l 561 0 l 561 361 q 531 577 561 521 q 396 633 500 633 q 186 575 292 633 l 186 0 l 104 0 m 486 860 q 383 894 457 860 q 292 928 310 928 q 207 886 260 928 l 189 871 l 168 926 q 290 996 238 996 q 394 963 319 996 q 483 929 468 929 q 563 969 514 929 l 579 983 l 599 925 q 486 860 536 860 z "},"ò":{"ha":732,"x_min":75,"x_max":657,"o":"m 75 349 q 75 447 75 349 q 141 626 75 544 q 366 708 207 708 q 591 626 525 708 q 657 349 657 544 q 597 69 657 153 q 367 -14 536 -14 q 136 69 197 -14 q 75 349 75 153 m 161 351 q 161 268 161 351 q 199 123 161 186 q 366 60 238 60 q 533 124 494 60 q 572 351 572 188 q 528 574 572 514 q 367 635 485 635 q 205 575 249 635 q 161 351 161 515 m 233 1024 l 521 889 l 494 831 l 203 951 l 233 1024 z "},"ó":{"ha":732,"x_min":75,"x_max":657,"o":"m 366 708 q 445 708 366 708 q 591 626 525 708 q 657 349 657 544 q 597 69 657 153 q 367 -14 536 -14 q 136 69 197 -14 q 75 349 75 153 q 141 626 75 544 q 366 708 207 708 m 366 60 q 430 60 366 60 q 533 124 494 60 q 572 351 572 188 q 528 574 572 514 q 367 635 485 635 q 205 575 249 635 q 161 351 161 515 q 199 123 161 186 q 366 60 238 60 m 226 889 l 514 1024 l 544 951 l 253 831 l 226 889 z "},"ô":{"ha":732,"x_min":75,"x_max":657,"o":"m 366 708 q 445 708 366 708 q 591 626 525 708 q 657 349 657 544 q 597 69 657 153 q 367 -14 536 -14 q 136 69 197 -14 q 75 349 75 153 q 141 626 75 544 q 366 708 207 708 m 366 60 q 430 60 366 60 q 533 124 494 60 q 572 351 572 188 q 528 574 572 514 q 367 635 485 635 q 205 575 249 635 q 161 351 161 515 q 199 123 161 186 q 366 60 238 60 m 165 826 l 335 1017 l 393 1017 l 564 826 l 476 826 l 365 954 l 253 826 l 165 826 z "},"õ":{"ha":732,"x_min":75,"x_max":657,"o":"m 366 708 q 445 708 366 708 q 591 626 525 708 q 657 349 657 544 q 597 69 657 153 q 367 -14 536 -14 q 136 69 197 -14 q 75 349 75 153 q 141 626 75 544 q 366 708 207 708 m 366 60 q 430 60 366 60 q 533 124 494 60 q 572 351 572 188 q 528 574 572 514 q 367 635 485 635 q 205 575 249 635 q 161 351 161 515 q 199 123 161 186 q 366 60 238 60 m 468 860 q 365 894 439 860 q 275 928 292 928 q 189 886 242 928 l 171 871 l 150 926 q 272 996 219 996 q 376 963 301 996 q 467 929 450 929 q 544 969 496 929 l 561 983 l 581 925 q 468 860 518 860 z "},"ö":{"ha":732,"x_min":75,"x_max":657,"o":"m 366 708 q 445 708 366 708 q 591 626 525 708 q 657 349 657 544 q 597 69 657 153 q 367 -14 536 -14 q 136 69 197 -14 q 75 349 75 153 q 141 626 75 544 q 366 708 207 708 m 366 60 q 430 60 366 60 q 533 124 494 60 q 572 351 572 188 q 528 574 572 514 q 367 635 485 635 q 205 575 249 635 q 161 351 161 515 q 199 123 161 186 q 366 60 238 60 m 183 871 l 183 982 l 265 982 l 265 871 l 183 871 m 457 871 l 457 982 l 538 982 l 538 871 l 457 871 z "},"÷":{"ha":778,"x_min":135,"x_max":643,"o":"m 135 365 l 135 447 l 643 447 l 643 365 l 135 365 m 289 465 l 289 590 l 489 590 l 489 465 l 289 465 m 346 46 l 346 175 l 431 175 l 431 46 l 346 46 z "},"ø":{"ha":732,"x_min":75,"x_max":657,"o":"m 367 708 q 475 696 429 708 l 535 840 l 594 819 l 533 674 q 657 357 657 606 q 597 69 657 153 q 367 -14 536 -14 q 257 -3 306 -14 l 194 -157 l 136 -136 l 197 18 q 102 133 129 53 q 75 357 75 214 q 141 626 75 544 q 367 708 207 708 m 367 635 q 205 575 249 635 q 161 378 161 515 q 175 180 161 242 q 231 90 189 118 l 447 625 q 367 635 417 635 m 367 60 q 533 124 494 60 q 572 367 572 188 q 503 600 572 547 l 285 68 q 367 60 318 60 z "},"ù":{"ha":729,"x_min":97,"x_max":625,"o":"m 543 694 l 625 694 l 625 0 l 543 0 l 543 51 q 329 -14 436 -14 q 142 58 188 -14 q 97 332 97 131 l 97 694 l 179 694 l 179 333 q 209 117 179 172 q 339 61 239 61 q 439 76 388 61 q 517 106 490 90 l 543 119 l 543 694 m 194 1024 l 482 889 l 456 831 l 164 951 l 194 1024 z "},"ú":{"ha":729,"x_min":97,"x_max":625,"o":"m 625 694 l 625 0 l 543 0 l 543 51 l 514 36 q 430 3 483 19 q 329 -14 376 -14 q 142 58 188 -14 q 97 332 97 131 q 97 694 97 332 l 179 694 l 179 333 q 209 117 179 172 q 344 61 239 61 q 543 119 449 61 l 543 694 l 625 694 m 224 889 l 511 1024 l 542 951 l 250 831 l 224 889 z "},"û":{"ha":729,"x_min":97,"x_max":625,"o":"m 625 694 l 625 0 l 543 0 l 543 51 l 514 36 q 430 3 483 19 q 329 -14 376 -14 q 142 58 188 -14 q 97 332 97 131 q 97 694 97 332 l 179 694 l 179 333 q 209 117 179 172 q 344 61 239 61 q 543 119 449 61 l 543 694 l 625 694 m 154 826 l 324 1017 l 382 1017 l 553 826 l 465 826 l 354 954 l 242 826 l 154 826 z "},"ü":{"ha":729,"x_min":97,"x_max":625,"o":"m 625 694 l 625 0 l 543 0 l 543 51 l 514 36 q 430 3 483 19 q 329 -14 376 -14 q 142 58 188 -14 q 97 332 97 131 q 97 694 97 332 l 179 694 l 179 333 q 209 117 179 172 q 344 61 239 61 q 543 119 449 61 l 543 694 l 625 694 m 192 871 l 192 982 l 274 982 l 274 871 l 192 871 m 465 871 l 465 982 l 546 982 l 546 871 l 465 871 z "},"ý":{"ha":664,"x_min":38,"x_max":628,"o":"m 38 694 l 122 694 l 307 72 l 357 72 l 543 694 l 628 694 l 328 -312 l 244 -312 l 338 0 l 242 0 l 38 694 m 224 889 l 511 1024 l 542 951 l 250 831 l 224 889 z "},"þ":{"ha":725,"x_min":104,"x_max":650,"o":"m 329 60 q 519 127 474 60 q 565 351 565 194 q 530 570 565 507 q 397 633 494 633 q 297 622 350 633 q 215 597 244 610 l 186 586 l 186 68 q 329 60 283 60 m 403 708 q 596 628 542 708 q 650 351 650 549 q 583 70 650 154 q 335 -14 515 -14 l 186 -4 l 186 -312 l 104 -312 l 104 1003 l 186 1003 l 186 657 q 403 708 296 708 z "},"ÿ":{"ha":664,"x_min":38,"x_max":628,"o":"m 38 694 l 122 694 l 307 72 l 357 72 l 543 694 l 628 694 l 328 -312 l 244 -312 l 338 0 l 242 0 l 38 694 m 153 871 l 153 982 l 235 982 l 235 871 l 153 871 m 426 871 l 426 982 l 507 982 l 507 871 l 426 871 z "},"Ā":{"ha":825,"x_min":35,"x_max":790,"o":"m 35 0 l 313 965 l 514 965 l 790 0 l 706 0 l 628 267 l 197 267 l 121 0 l 35 0 m 375 890 l 218 343 l 607 343 l 450 890 l 375 890 m 203 1138 l 203 1206 l 622 1206 l 622 1138 l 203 1138 z "},"ā":{"ha":693,"x_min":60,"x_max":672,"o":"m 582 488 l 582 115 q 672 54 588 64 l 668 -12 q 511 43 561 -12 q 250 -14 381 -14 q 108 40 157 -14 q 60 192 60 93 q 109 340 60 292 q 264 399 158 388 l 500 422 l 500 488 q 466 599 500 565 q 375 633 432 633 q 144 617 286 633 l 101 613 l 97 679 q 365 708 250 708 q 531 654 479 708 q 582 488 582 600 m 146 197 q 261 57 146 57 q 371 69 311 57 q 465 93 431 81 l 500 106 l 500 357 l 274 333 q 176 294 206 328 q 146 197 146 261 m 157 876 l 157 944 l 535 944 l 535 876 l 157 876 z "},"Ă":{"ha":825,"x_min":35,"x_max":790,"o":"m 35 0 l 313 965 l 514 965 l 790 0 l 706 0 l 628 267 l 197 267 l 121 0 l 35 0 m 375 890 l 218 343 l 607 343 l 450 890 l 375 890 m 319 1198 q 337 1183 319 1198 q 410 1168 356 1168 q 501 1198 464 1168 q 540 1278 539 1228 l 618 1278 q 558 1150 617 1199 q 410 1101 500 1101 q 262 1150 319 1101 q 201 1278 204 1199 l 281 1278 q 319 1198 282 1228 z "},"ă":{"ha":696,"x_min":60,"x_max":672,"o":"m 582 485 l 582 122 q 672 60 588 69 l 668 -12 q 511 40 558 -12 l 475 26 q 374 -1 440 13 q 244 -14 307 -14 q 108 40 157 -14 q 60 193 60 94 q 109 340 60 292 q 264 399 158 389 q 500 422 264 399 l 500 485 q 367 628 500 628 q 103 607 265 628 l 97 681 l 142 688 q 369 707 264 707 q 530 653 478 707 q 582 485 582 599 m 254 60 q 500 107 372 60 l 500 353 l 274 332 q 146 197 146 321 q 174 95 146 131 q 254 60 203 60 m 258 929 q 275 913 258 929 q 350 897 292 897 q 442 929 408 897 q 476 1013 475 961 l 561 1013 q 502 875 558 928 q 350 822 446 822 q 198 875 254 822 q 139 1013 142 928 l 224 1013 q 258 929 225 961 z "},"Ą":{"ha":825,"x_min":35,"x_max":819,"o":"m 708 -87 q 694 -108 708 -87 q 679 -153 679 -129 q 696 -194 679 -176 q 739 -212 713 -212 l 811 -204 l 819 -271 q 714 -283 763 -283 q 631 -251 665 -283 q 597 -172 597 -219 q 635 -74 597 -124 q 704 4 672 -24 l 628 267 l 197 267 l 121 0 l 35 0 l 313 965 l 514 965 l 790 0 l 782 0 q 708 -87 738 -44 m 375 890 l 218 343 l 607 343 l 450 890 l 375 890 z "},"ą":{"ha":692,"x_min":60,"x_max":672,"o":"m 582 488 l 582 115 q 672 54 588 64 l 668 -12 q 622 -10 650 -12 q 531 -144 531 -111 q 547 -194 531 -176 q 590 -212 564 -212 l 663 -204 l 671 -271 q 565 -283 614 -283 q 483 -251 517 -283 q 449 -165 449 -219 q 475 -93 449 -135 q 558 7 510 -37 q 511 43 531 19 q 250 -14 381 -14 q 108 40 157 -14 q 60 192 60 93 q 109 340 60 292 q 264 399 158 388 l 500 422 l 500 488 q 466 599 500 565 q 375 633 432 633 q 144 617 286 633 l 101 613 l 97 679 q 365 708 250 708 q 531 654 479 708 q 582 488 582 600 m 146 197 q 261 57 146 57 q 371 69 311 57 q 465 93 431 81 l 500 106 l 500 357 l 274 333 q 176 294 206 328 q 146 197 146 261 z "},"Ć":{"ha":756,"x_min":86,"x_max":697,"o":"m 697 15 q 453 -14 554 -14 q 290 8 351 -14 q 189 68 228 29 q 128 169 150 107 q 86 479 86 283 q 186 894 86 793 q 436 979 268 979 q 697 950 551 979 l 693 875 q 461 901 549 901 q 326 883 374 901 q 248 833 278 864 q 203 746 218 801 q 175 510 175 651 q 185 298 175 368 q 222 171 194 228 q 304 89 250 114 q 454 64 358 64 q 693 90 550 64 l 697 15 m 264 1151 l 551 1289 l 582 1214 l 292 1092 l 264 1151 z "},"ć":{"ha":601,"x_min":75,"x_max":544,"o":"m 363 708 q 511 694 425 708 l 543 690 l 539 619 q 376 633 429 633 q 207 573 253 633 q 161 351 161 513 q 203 125 161 189 q 376 61 244 61 l 542 74 l 544 3 q 361 -14 421 -14 q 135 68 196 -14 q 75 350 75 150 q 141 629 75 550 q 363 708 207 708 m 185 889 l 472 1024 l 503 951 l 211 831 l 185 889 z "},"Ĉ":{"ha":756,"x_min":86,"x_max":697,"o":"m 697 15 q 453 -14 554 -14 q 290 8 351 -14 q 189 68 228 29 q 128 169 150 107 q 86 479 86 283 q 186 894 86 793 q 436 979 268 979 q 697 950 551 979 l 693 875 q 461 901 549 901 q 326 883 374 901 q 248 833 278 864 q 203 746 218 801 q 175 510 175 651 q 185 298 175 368 q 222 171 194 228 q 304 89 250 114 q 454 64 358 64 q 693 90 550 64 l 697 15 m 213 1108 l 399 1290 l 471 1290 l 657 1108 l 561 1108 l 436 1228 l 310 1108 l 213 1108 z "},"ĉ":{"ha":601,"x_min":75,"x_max":544,"o":"m 363 708 q 511 694 425 708 l 543 690 l 539 619 q 376 633 429 633 q 207 573 253 633 q 161 351 161 513 q 203 125 161 189 q 376 61 244 61 l 542 74 l 544 3 q 361 -14 421 -14 q 135 68 196 -14 q 75 350 75 150 q 141 629 75 550 q 363 708 207 708 m 126 826 l 296 1017 l 354 1017 l 525 826 l 438 826 l 326 954 l 214 826 l 126 826 z "},"Ċ":{"ha":756,"x_min":86,"x_max":697,"o":"m 697 15 q 453 -14 554 -14 q 290 8 351 -14 q 189 68 228 29 q 128 169 150 107 q 86 479 86 283 q 186 894 86 793 q 436 979 268 979 q 697 950 551 979 l 693 875 q 461 901 549 901 q 326 883 374 901 q 248 833 278 864 q 203 746 218 801 q 175 510 175 651 q 185 298 175 368 q 222 171 194 228 q 304 89 250 114 q 454 64 358 64 q 693 90 550 64 l 697 15 m 367 1121 l 367 1225 l 450 1225 l 450 1121 l 367 1121 z "},"ċ":{"ha":601,"x_min":75,"x_max":544,"o":"m 363 708 q 511 694 425 708 l 543 690 l 539 619 q 376 633 429 633 q 207 573 253 633 q 161 351 161 513 q 203 125 161 189 q 376 61 244 61 l 542 74 l 544 3 q 361 -14 421 -14 q 135 68 196 -14 q 75 350 75 150 q 141 629 75 550 q 363 708 207 708 m 304 865 l 304 969 l 388 969 l 388 865 l 304 865 z "},"Č":{"ha":756,"x_min":86,"x_max":697,"o":"m 697 15 q 453 -14 554 -14 q 290 8 351 -14 q 189 68 228 29 q 128 169 150 107 q 86 479 86 283 q 186 894 86 793 q 436 979 268 979 q 697 950 551 979 l 693 875 q 461 901 549 901 q 326 883 374 901 q 248 833 278 864 q 203 746 218 801 q 175 510 175 651 q 185 298 175 368 q 222 171 194 228 q 304 89 250 114 q 454 64 358 64 q 693 90 550 64 l 697 15 m 383 1108 l 197 1290 l 293 1290 l 419 1171 l 544 1290 l 642 1290 l 456 1108 l 383 1108 z "},"č":{"ha":601,"x_min":75,"x_max":544,"o":"m 363 708 q 511 694 425 708 l 543 690 l 539 619 q 376 633 429 633 q 207 573 253 633 q 161 351 161 513 q 203 125 161 189 q 376 61 244 61 l 542 74 l 544 3 q 361 -14 421 -14 q 135 68 196 -14 q 75 350 75 150 q 141 629 75 550 q 363 708 207 708 m 303 826 l 133 1017 l 219 1017 l 333 890 l 446 1017 l 532 1017 l 361 826 l 303 826 z "},"Ď":{"ha":897,"x_min":121,"x_max":815,"o":"m 472 0 l 121 0 l 121 965 l 472 965 q 815 496 815 965 q 472 0 815 0 m 726 496 q 472 888 726 888 l 207 888 l 207 76 l 472 76 q 726 496 726 76 m 369 1108 l 183 1290 l 279 1290 l 406 1171 l 531 1290 l 628 1290 l 442 1108 l 369 1108 z "},"ď":{"ha":767,"x_min":74,"x_max":847,"o":"m 764 951 l 847 951 l 781 672 l 710 672 l 764 951 m 624 1003 l 624 0 l 540 0 l 540 51 q 318 -14 431 -14 q 229 -2 267 -14 q 153 44 192 10 q 74 322 74 115 q 140 618 74 528 q 365 708 207 708 q 540 690 426 708 l 540 1003 l 624 1003 m 214 107 q 266 71 240 81 q 333 61 292 61 q 427 76 374 61 q 511 106 481 92 l 540 121 l 540 618 q 368 635 429 635 q 205 563 250 635 q 160 339 160 490 q 214 107 160 161 z "},"Đ":{"ha":901,"x_min":26,"x_max":819,"o":"m 26 444 l 26 525 l 125 525 l 125 968 l 475 968 q 819 499 819 968 q 475 0 819 0 l 125 0 l 125 444 l 26 444 m 731 499 q 475 888 731 888 l 210 888 l 210 525 l 439 525 l 439 444 l 210 444 l 210 81 l 475 81 q 599 116 547 81 q 679 214 651 151 q 731 499 731 329 z "},"đ":{"ha":726,"x_min":74,"x_max":674,"o":"m 624 1003 l 624 938 l 674 938 l 674 864 l 624 864 l 624 0 l 540 0 l 540 51 q 318 -14 431 -14 q 229 -2 267 -14 q 153 44 192 10 q 74 322 74 115 q 140 618 74 528 q 365 708 207 708 q 540 690 426 708 l 540 864 l 282 864 l 282 938 l 540 938 l 540 1003 l 624 1003 m 214 107 q 266 71 240 81 q 333 61 292 61 q 427 76 374 61 q 511 106 481 92 l 540 121 l 540 618 q 368 635 429 635 q 205 563 250 635 q 160 339 160 490 q 214 107 160 161 z "},"Ē":{"ha":767,"x_min":121,"x_max":700,"o":"m 121 0 l 121 965 l 700 965 l 700 888 l 207 888 l 207 529 l 617 529 l 617 453 l 207 453 l 207 76 l 700 76 l 700 0 l 121 0 m 199 1138 l 199 1206 l 618 1206 l 618 1138 l 199 1138 z "},"ē":{"ha":700,"x_min":74,"x_max":633,"o":"m 564 69 l 606 74 l 608 6 q 343 -14 451 -14 q 133 75 193 -12 q 74 344 74 163 q 360 708 74 708 q 565 630 497 708 q 633 379 633 551 l 631 313 l 158 313 q 202 123 158 185 q 352 61 246 61 q 564 69 458 61 m 158 382 l 550 382 q 505 578 550 519 q 360 636 460 636 q 210 576 261 636 q 158 382 158 515 m 175 876 l 175 944 l 553 944 l 553 876 l 175 876 z "},"Ĕ":{"ha":767,"x_min":121,"x_max":700,"o":"m 121 0 l 121 965 l 700 965 l 700 888 l 207 888 l 207 529 l 617 529 l 617 453 l 207 453 l 207 76 l 700 76 l 700 0 l 121 0 m 333 1198 q 351 1183 333 1198 q 424 1168 369 1168 q 515 1198 478 1168 q 554 1278 553 1228 l 632 1278 q 572 1150 631 1199 q 424 1101 514 1101 q 276 1150 333 1101 q 215 1278 218 1199 l 294 1278 q 333 1198 296 1228 z "},"ĕ":{"ha":700,"x_min":74,"x_max":633,"o":"m 564 69 l 606 74 l 608 6 q 343 -14 451 -14 q 133 75 193 -12 q 74 344 74 163 q 360 708 74 708 q 565 630 497 708 q 633 379 633 551 l 631 313 l 158 313 q 202 123 158 185 q 352 61 246 61 q 564 69 458 61 m 158 382 l 550 382 q 505 578 550 519 q 360 636 460 636 q 210 576 261 636 q 158 382 158 515 m 260 917 q 277 900 260 917 q 354 883 294 883 q 448 918 414 883 q 483 1007 482 953 l 556 1007 q 498 872 553 925 q 354 818 443 818 q 211 872 265 818 q 154 1007 157 925 l 225 1007 q 260 917 226 951 z "},"Ė":{"ha":767,"x_min":121,"x_max":700,"o":"m 121 0 l 121 965 l 700 965 l 700 888 l 207 888 l 207 529 l 617 529 l 617 453 l 207 453 l 207 76 l 700 76 l 700 0 l 121 0 m 369 1124 l 369 1228 l 453 1228 l 453 1124 l 369 1124 z "},"ė":{"ha":700,"x_min":74,"x_max":633,"o":"m 564 69 l 606 74 l 608 6 q 343 -14 451 -14 q 133 75 193 -12 q 74 344 74 163 q 360 708 74 708 q 565 630 497 708 q 633 379 633 551 l 631 313 l 158 313 q 202 123 158 185 q 352 61 246 61 q 564 69 458 61 m 158 382 l 550 382 q 505 578 550 519 q 360 636 460 636 q 210 576 261 636 q 158 382 158 515 m 310 865 l 310 969 l 393 969 l 393 865 l 310 865 z "},"Ę":{"ha":767,"x_min":121,"x_max":700,"o":"m 121 0 l 121 965 l 700 965 l 700 888 l 207 888 l 207 529 l 617 529 l 617 453 l 207 453 l 207 76 l 700 76 l 700 0 l 660 0 q 586 -87 615 -44 q 557 -153 557 -129 q 574 -194 557 -176 q 617 -212 590 -212 l 689 -204 l 697 -271 q 592 -283 640 -283 q 509 -251 543 -283 q 475 -172 475 -219 q 509 -78 475 -125 q 578 0 543 -31 l 121 0 z "},"ę":{"ha":700,"x_min":74,"x_max":633,"o":"m 474 -149 q 490 -194 474 -176 q 533 -212 507 -212 l 606 -204 l 614 -271 q 508 -283 557 -283 q 426 -251 460 -283 q 392 -160 392 -219 q 488 -6 392 -101 q 343 -14 393 -14 q 133 75 193 -12 q 74 344 74 163 q 360 708 74 708 q 565 630 497 708 q 633 379 633 551 l 631 313 l 158 313 q 202 123 158 185 q 351 61 246 61 q 564 69 458 61 l 606 74 l 608 6 q 578 1 594 4 q 474 -149 474 -104 m 158 382 l 550 382 q 505 578 550 519 q 360 636 460 636 q 210 576 261 636 q 158 382 158 515 z "},"Ě":{"ha":767,"x_min":121,"x_max":700,"o":"m 121 0 l 121 965 l 700 965 l 700 888 l 207 888 l 207 529 l 617 529 l 617 453 l 207 453 l 207 76 l 700 76 l 700 0 l 121 0 m 371 1108 l 185 1290 l 281 1290 l 407 1171 l 532 1290 l 629 1290 l 443 1108 l 371 1108 z "},"ě":{"ha":700,"x_min":74,"x_max":633,"o":"m 564 69 l 606 74 l 608 6 q 343 -14 451 -14 q 133 75 193 -12 q 74 344 74 163 q 360 708 74 708 q 565 630 497 708 q 633 379 633 551 l 631 313 l 158 313 q 202 123 158 185 q 352 61 246 61 q 564 69 458 61 m 158 382 l 550 382 q 505 578 550 519 q 360 636 460 636 q 210 576 261 636 q 158 382 158 515 m 319 826 l 150 1017 l 236 1017 l 350 890 l 463 1017 l 549 1017 l 378 826 l 319 826 z "},"Ĝ":{"ha":857,"x_min":83,"x_max":763,"o":"m 500 415 l 500 492 l 763 492 l 763 25 q 621 3 722 17 q 453 -10 519 -10 q 164 113 244 -10 q 83 483 83 235 q 100 694 83 607 q 158 850 117 782 q 451 983 238 983 q 717 956 582 983 l 763 947 l 758 874 q 458 906 585 906 q 231 805 290 906 q 172 485 172 704 q 231 167 172 265 q 457 68 290 68 q 678 90 556 68 l 678 415 l 500 415 m 222 1103 l 408 1285 l 481 1285 l 667 1103 l 571 1103 l 446 1222 l 319 1103 l 222 1103 z "},"ĝ":{"ha":707,"x_min":74,"x_max":681,"o":"m 667 -106 q 667 -165 667 -106 q 591 -276 667 -224 q 356 -329 515 -329 q 135 -283 196 -329 q 74 -115 74 -237 q 99 -22 74 -57 q 186 60 124 14 q 151 154 151 82 q 185 242 151 176 l 196 263 q 82 472 82 310 q 333 708 82 708 q 458 694 404 708 l 479 690 l 681 694 l 681 621 l 542 624 q 592 459 592 574 q 528 292 592 344 q 329 240 465 240 q 258 246 289 240 q 231 160 231 178 q 258 103 231 114 q 419 92 285 93 q 610 52 554 92 q 667 -106 667 13 m 157 -110 q 199 -225 157 -193 q 360 -257 240 -257 q 531 -223 479 -257 q 582 -109 582 -189 q 544 -6 582 -29 q 401 18 507 18 l 244 24 q 175 -40 193 -12 q 157 -110 157 -67 m 167 473 q 167 428 167 473 q 206 347 167 383 q 337 310 244 310 q 468 346 429 310 q 507 473 507 382 q 468 601 507 564 q 337 639 429 639 q 206 601 244 639 q 167 473 167 563 m 161 826 l 331 1017 l 389 1017 l 560 826 l 472 826 l 361 954 l 249 826 l 161 826 z "},"Ğ":{"ha":857,"x_min":83,"x_max":763,"o":"m 500 411 l 500 488 l 763 488 l 763 21 q 621 -1 722 13 q 453 -14 519 -14 q 164 108 244 -14 q 83 479 83 231 q 100 690 83 603 q 158 846 117 778 q 451 979 238 979 q 717 953 582 979 l 763 943 l 758 869 q 458 901 585 901 q 231 801 290 901 q 172 481 172 700 q 231 163 172 261 q 457 64 290 64 q 678 86 556 64 l 678 411 l 500 411 m 367 1198 q 386 1183 367 1198 q 458 1168 404 1168 q 550 1198 513 1168 q 589 1278 588 1228 l 667 1278 q 607 1150 665 1199 q 458 1101 549 1101 q 310 1150 368 1101 q 250 1278 253 1199 l 329 1278 q 367 1198 331 1228 z "},"ğ":{"ha":707,"x_min":74,"x_max":681,"o":"m 667 -106 q 667 -165 667 -106 q 591 -276 667 -224 q 356 -329 515 -329 q 135 -283 196 -329 q 74 -115 74 -237 q 99 -22 74 -57 q 186 60 124 14 q 151 154 151 82 q 185 242 151 176 l 196 263 q 82 472 82 310 q 333 708 82 708 q 458 694 404 708 l 479 690 l 681 694 l 681 621 l 542 624 q 592 459 592 574 q 528 292 592 344 q 329 240 465 240 q 258 246 289 240 q 231 160 231 178 q 258 103 231 114 q 419 92 285 93 q 610 52 554 92 q 667 -106 667 13 m 157 -110 q 199 -225 157 -193 q 360 -257 240 -257 q 531 -223 479 -257 q 582 -109 582 -189 q 544 -6 582 -29 q 401 18 507 18 l 244 24 q 175 -40 193 -12 q 157 -110 157 -67 m 167 473 q 167 428 167 473 q 206 347 167 383 q 337 310 244 310 q 468 346 429 310 q 507 473 507 382 q 468 601 507 564 q 337 639 429 639 q 206 601 244 639 q 167 473 167 563 m 266 917 q 283 900 266 917 q 360 883 300 883 q 453 918 419 883 q 489 1007 488 953 l 561 1007 q 503 872 558 925 q 360 818 449 818 q 217 872 271 818 q 160 1007 163 925 l 231 1007 q 266 917 232 951 z "},"Ġ":{"ha":857,"x_min":83,"x_max":763,"o":"m 500 411 l 500 488 l 763 488 l 763 21 q 621 -1 722 13 q 453 -14 519 -14 q 164 108 244 -14 q 83 479 83 231 q 100 690 83 603 q 158 846 117 778 q 451 979 238 979 q 717 953 582 979 l 763 943 l 758 869 q 458 901 585 901 q 231 801 290 901 q 172 481 172 700 q 231 163 172 261 q 457 64 290 64 q 678 86 556 64 l 678 411 l 500 411 m 393 1124 l 393 1228 l 476 1228 l 476 1124 l 393 1124 z "},"ġ":{"ha":707,"x_min":74,"x_max":681,"o":"m 667 -106 q 667 -165 667 -106 q 591 -276 667 -224 q 356 -329 515 -329 q 135 -283 196 -329 q 74 -115 74 -237 q 99 -22 74 -57 q 186 60 124 14 q 151 154 151 82 q 185 242 151 176 l 196 263 q 82 472 82 310 q 333 708 82 708 q 458 694 404 708 l 479 690 l 681 694 l 681 621 l 542 624 q 592 459 592 574 q 528 292 592 344 q 329 240 465 240 q 258 246 289 240 q 231 160 231 178 q 258 103 231 114 q 419 92 285 93 q 610 52 554 92 q 667 -106 667 13 m 157 -110 q 199 -225 157 -193 q 360 -257 240 -257 q 531 -223 479 -257 q 582 -109 582 -189 q 544 -6 582 -29 q 401 18 507 18 l 244 24 q 175 -40 193 -12 q 157 -110 157 -67 m 167 473 q 167 428 167 473 q 206 347 167 383 q 337 310 244 310 q 468 346 429 310 q 507 473 507 382 q 468 601 507 564 q 337 639 429 639 q 206 601 244 639 q 167 473 167 563 m 317 865 l 317 969 l 400 969 l 400 865 l 317 865 z "},"Ģ":{"ha":857,"x_min":83,"x_max":763,"o":"m 500 411 l 500 488 l 763 488 l 763 21 q 621 -1 722 13 q 453 -14 519 -14 q 164 108 244 -14 q 83 479 83 231 q 100 690 83 603 q 158 846 117 778 q 451 979 238 979 q 717 953 582 979 l 763 943 l 758 869 q 458 901 585 901 q 231 801 290 901 q 172 481 172 700 q 231 163 172 261 q 457 64 290 64 q 678 86 556 64 l 678 411 l 500 411 m 429 -108 l 514 -108 l 446 -386 l 375 -386 l 429 -108 z "},"ģ":{"ha":707,"x_min":74,"x_max":681,"o":"m 413 1099 l 358 819 l 275 819 l 342 1099 l 413 1099 m 667 -106 q 667 -165 667 -106 q 591 -276 667 -224 q 356 -329 515 -329 q 135 -283 196 -329 q 74 -115 74 -237 q 99 -22 74 -57 q 186 60 124 14 q 151 154 151 82 q 185 242 151 176 l 196 263 q 82 472 82 310 q 333 708 82 708 q 458 694 404 708 l 479 690 l 681 694 l 681 621 l 542 624 q 592 459 592 574 q 528 292 592 344 q 329 240 465 240 q 258 246 289 240 q 231 160 231 178 q 258 103 231 114 q 419 92 285 93 q 610 52 554 92 q 667 -106 667 13 m 157 -110 q 199 -225 157 -193 q 360 -257 240 -257 q 531 -223 479 -257 q 582 -109 582 -189 q 544 -6 582 -29 q 401 18 507 18 l 244 24 q 175 -40 193 -12 q 157 -110 157 -67 m 167 473 q 167 428 167 473 q 206 347 167 383 q 337 310 244 310 q 468 346 429 310 q 507 473 507 382 q 468 601 507 564 q 337 639 429 639 q 206 601 244 639 q 167 473 167 563 z "},"Ĥ":{"ha":938,"x_min":121,"x_max":815,"o":"m 731 0 l 731 446 l 207 446 l 207 0 l 121 0 l 121 965 l 207 965 l 207 522 l 731 522 l 731 965 l 815 965 l 815 0 l 731 0 m 247 1108 l 433 1290 l 506 1290 l 692 1108 l 596 1108 l 471 1228 l 344 1108 l 247 1108 z "},"ĥ":{"ha":740,"x_min":104,"x_max":643,"o":"m 186 0 l 104 0 l 104 1003 l 186 1003 l 186 654 q 411 708 303 708 q 597 635 550 708 q 643 365 643 561 l 643 0 l 560 0 l 560 361 q 530 577 560 521 q 400 633 500 633 q 298 622 351 633 q 215 597 244 610 l 186 586 l 186 0 m 168 1083 l 338 1274 l 396 1274 l 567 1083 l 479 1083 l 368 1211 l 256 1083 l 168 1083 z "},"Ħ":{"ha":953,"x_min":19,"x_max":940,"o":"m 19 713 l 19 786 l 126 786 l 126 965 l 213 965 l 213 786 l 736 786 l 736 965 l 821 965 l 821 786 l 940 786 l 940 713 l 821 713 l 821 0 l 736 0 l 736 446 l 213 446 l 213 0 l 126 0 l 126 713 l 19 713 m 213 522 l 736 522 l 736 713 l 213 713 l 213 522 z "},"ħ":{"ha":740,"x_min":13,"x_max":643,"o":"m 13 822 l 13 896 l 104 896 l 104 1003 l 186 1003 l 186 896 l 404 896 l 404 822 l 186 822 l 186 654 q 411 708 303 708 q 597 635 550 708 q 643 365 643 561 l 643 0 l 560 0 l 560 361 q 530 577 560 521 q 400 633 500 633 q 298 622 351 633 q 215 597 244 610 l 186 586 l 186 0 l 104 0 l 104 822 l 13 822 z "},"Ĩ":{"ha":328,"x_min":-71,"x_max":382,"o":"m 121 0 l 121 965 l 207 965 l 207 0 l 121 0 m 267 1131 q 153 1170 239 1131 q 50 1210 68 1210 q -33 1158 19 1210 l -50 1140 l -71 1204 q 47 1282 -6 1282 q 168 1244 83 1282 q 268 1206 253 1206 q 344 1253 294 1206 l 361 1269 l 382 1207 q 267 1131 318 1131 z "},"ĩ":{"ha":290,"x_min":-69,"x_max":361,"o":"m 104 694 l 186 694 l 186 0 l 104 0 l 104 694 m 249 860 q 146 894 219 860 q 56 928 72 928 q -31 886 22 928 l -49 871 l -69 926 q 53 996 0 996 q 156 963 82 996 q 247 929 231 929 q 325 969 276 929 l 342 983 l 361 925 q 249 860 299 860 z "},"Ī":{"ha":328,"x_min":-43,"x_max":376,"o":"m 121 0 l 121 965 l 207 965 l 207 0 l 121 0 m -43 1138 l -43 1206 l 376 1206 l 376 1138 l -43 1138 z "},"ī":{"ha":290,"x_min":-43,"x_max":335,"o":"m 104 694 l 186 694 l 186 0 l 104 0 l 104 694 m -43 876 l -43 944 l 335 944 l 335 876 l -43 876 z "},"Ĭ":{"ha":328,"x_min":-36,"x_max":381,"o":"m 121 0 l 121 965 l 207 965 l 207 0 l 121 0 m 81 1198 q 100 1183 81 1198 q 172 1168 118 1168 q 264 1198 226 1168 q 303 1278 301 1228 l 381 1278 q 321 1150 379 1199 q 172 1101 263 1101 q 24 1150 82 1101 q -36 1278 -33 1199 l 43 1278 q 81 1198 44 1228 z "},"ĭ":{"ha":290,"x_min":-54,"x_max":347,"o":"m 104 694 l 186 694 l 186 0 l 104 0 l 104 694 m 52 917 q 69 900 52 917 q 146 883 86 883 q 240 918 206 883 q 275 1007 274 953 l 347 1007 q 290 872 344 925 q 146 818 235 818 q 3 872 57 818 q -54 1007 -51 925 l 17 1007 q 52 917 18 951 z "},"Į":{"ha":328,"x_min":17,"x_max":240,"o":"m 121 0 l 121 965 l 207 965 l 207 0 q 99 -149 99 -104 q 116 -194 99 -176 q 160 -212 133 -212 l 232 -204 l 240 -271 q 134 -283 182 -283 q 51 -251 86 -283 q 17 -165 17 -219 q 122 0 17 -96 l 121 0 z "},"į":{"ha":290,"x_min":-3,"x_max":221,"o":"m 104 0 l 104 694 l 186 694 l 186 0 q 79 -149 79 -103 q 96 -194 79 -176 q 139 -212 113 -212 l 213 -204 l 221 -271 q 114 -283 163 -283 q 31 -251 65 -283 q -3 -172 -3 -219 q 33 -78 -3 -125 q 106 0 69 -32 l 104 0 m 104 868 l 104 972 l 186 972 l 186 868 l 104 868 z "},"İ":{"ha":328,"x_min":121,"x_max":207,"o":"m 121 0 l 121 965 l 207 965 l 207 0 l 121 0 m 122 1124 l 122 1228 l 206 1228 l 206 1124 l 122 1124 z "},"ı":{"ha":290,"x_min":104,"x_max":186,"o":"m 104 0 l 104 694 l 186 694 l 186 0 l 104 0 z "},"Ĵ":{"ha":396,"x_min":13,"x_max":457,"o":"m 279 965 l 279 124 q 266 1 279 46 q 217 -67 253 -44 q 142 -94 182 -89 q 25 -100 101 -100 l 25 -24 q 111 -20 85 -24 q 160 0 138 -17 q 189 49 183 17 q 194 142 194 81 l 194 965 l 279 965 m 13 1103 l 199 1285 l 271 1285 l 457 1103 l 361 1103 l 236 1222 l 110 1103 l 13 1103 z "},"ĵ":{"ha":290,"x_min":-74,"x_max":342,"o":"m 104 14 l 104 694 l 188 694 l 188 13 q 142 -174 188 -110 q -40 -307 97 -237 l -74 -240 q 71 -131 38 -178 q 104 14 104 -83 m -57 826 l 113 1017 l 171 1017 l 342 826 l 254 826 l 143 954 l 31 826 l -57 826 z "},"Ķ":{"ha":781,"x_min":121,"x_max":758,"o":"m 207 0 l 121 0 l 121 968 l 207 968 l 207 515 l 372 518 l 640 968 l 740 968 l 449 483 l 758 0 l 656 0 l 375 436 l 207 433 l 207 0 m 374 -108 l 457 -108 l 390 -386 l 319 -386 l 374 -108 z "},"ķ":{"ha":653,"x_min":104,"x_max":625,"o":"m 176 -386 l 231 -108 l 315 -108 l 247 -386 l 176 -386 m 186 0 l 104 0 l 104 1003 l 186 1003 l 186 406 l 304 408 l 518 694 l 614 694 l 376 376 l 625 0 l 528 0 l 306 335 l 186 332 l 186 0 z "},"Ĺ":{"ha":667,"x_min":121,"x_max":649,"o":"m 649 0 l 121 0 l 121 968 l 207 968 l 207 82 l 649 82 l 649 0 m 194 1151 l 482 1289 l 513 1214 l 222 1092 l 194 1151 z "},"ĺ":{"ha":307,"x_min":75,"x_max":393,"o":"m 113 0 l 113 1003 l 194 1003 l 194 0 l 113 0 m 75 1169 l 363 1304 l 393 1232 l 101 1111 l 75 1169 z "},"Ļ":{"ha":667,"x_min":121,"x_max":649,"o":"m 347 -108 l 431 -108 l 364 -386 l 292 -386 l 347 -108 m 649 0 l 121 0 l 121 965 l 207 965 l 207 78 l 649 78 l 649 0 z "},"ļ":{"ha":307,"x_min":50,"x_max":194,"o":"m 113 0 l 113 1003 l 194 1003 l 194 0 l 113 0 m 104 -108 l 189 -108 l 121 -386 l 50 -386 l 104 -108 z "},"Ľ":{"ha":685,"x_min":121,"x_max":649,"o":"m 601 968 l 601 653 l 521 653 l 521 968 l 601 968 m 649 0 l 121 0 l 121 965 l 207 965 l 207 78 l 649 78 l 649 0 z "},"ľ":{"ha":338,"x_min":113,"x_max":421,"o":"m 338 951 l 421 951 l 354 672 l 283 672 l 338 951 m 113 0 l 113 1003 l 194 1003 l 194 0 l 113 0 z "},"Ł":{"ha":672,"x_min":1,"x_max":654,"o":"m 654 0 l 126 0 l 126 396 l 43 338 l 1 396 l 126 483 l 126 965 l 213 965 l 213 543 l 425 693 l 467 635 l 213 456 l 213 78 l 654 78 l 654 0 z "},"ł":{"ha":406,"x_min":15,"x_max":389,"o":"m 157 0 l 157 408 l 58 339 l 15 399 l 157 497 l 157 1003 l 240 1003 l 240 556 l 346 631 l 389 571 l 240 467 l 240 0 l 157 0 z "},"Ń":{"ha":933,"x_min":121,"x_max":811,"o":"m 121 0 l 121 965 l 290 965 l 694 76 l 726 76 l 726 965 l 811 965 l 811 0 l 644 0 l 238 888 l 207 888 l 207 0 l 121 0 m 311 1151 l 599 1289 l 629 1214 l 339 1092 l 311 1151 z "},"ń":{"ha":740,"x_min":104,"x_max":644,"o":"m 104 0 l 104 694 l 186 694 l 186 643 l 218 658 q 307 692 250 675 q 413 708 364 708 q 598 635 551 708 q 644 365 644 561 q 644 0 644 365 l 561 0 l 561 361 q 531 577 561 521 q 396 633 500 633 q 186 575 292 633 l 186 0 l 104 0 m 228 889 l 515 1024 l 546 951 l 254 831 l 228 889 z "},"Ņ":{"ha":933,"x_min":121,"x_max":811,"o":"m 458 -108 l 542 -108 l 475 -386 l 403 -386 l 458 -108 m 121 0 l 121 965 l 290 965 l 694 76 l 726 76 l 726 965 l 811 965 l 811 0 l 644 0 l 238 888 l 207 888 l 207 0 l 121 0 z "},"ņ":{"ha":740,"x_min":104,"x_max":644,"o":"m 225 -386 l 279 -108 l 363 -108 l 296 -386 l 225 -386 m 186 0 l 104 0 l 104 694 l 186 694 l 186 643 q 413 708 303 708 q 598 635 551 708 q 644 365 644 561 l 644 0 l 561 0 l 561 361 q 531 577 561 521 q 400 633 500 633 q 298 619 351 633 q 215 589 244 604 l 186 575 l 186 0 z "},"Ň":{"ha":933,"x_min":121,"x_max":811,"o":"m 121 0 l 121 965 l 290 965 l 694 76 l 726 76 l 726 965 l 811 965 l 811 0 l 644 0 l 238 888 l 207 888 l 207 0 l 121 0 m 431 1103 l 244 1285 l 340 1285 l 467 1165 l 592 1285 l 689 1285 l 503 1103 l 431 1103 z "},"ň":{"ha":740,"x_min":104,"x_max":644,"o":"m 186 0 l 104 0 l 104 694 l 186 694 l 186 643 q 413 708 303 708 q 598 635 551 708 q 644 365 644 561 l 644 0 l 561 0 l 561 361 q 531 577 561 521 q 400 633 500 633 q 298 619 351 633 q 215 589 244 604 l 186 575 l 186 0 m 340 826 l 171 1017 l 257 1017 l 371 890 l 483 1017 l 569 1017 l 399 826 l 340 826 z "},"Ŋ":{"ha":933,"x_min":121,"x_max":811,"o":"m 121 0 l 121 965 l 290 965 l 694 76 l 726 76 l 726 965 l 811 965 l 811 -31 q 798 -153 811 -108 q 749 -221 785 -199 q 674 -249 714 -243 q 557 -254 633 -254 l 557 -178 q 643 -174 617 -178 q 692 -154 669 -171 q 721 -106 715 -137 q 726 -12 726 -74 l 726 0 l 644 0 l 238 888 l 207 888 l 207 0 l 121 0 z "},"ŋ":{"ha":742,"x_min":103,"x_max":644,"o":"m 186 0 l 103 0 l 103 694 l 186 694 l 186 644 q 414 708 308 708 q 597 631 550 708 q 644 361 644 553 l 644 -6 q 603 -192 644 -131 q 428 -326 561 -253 l 393 -256 q 531 -147 499 -193 q 563 -7 563 -101 l 563 360 q 531 572 563 511 q 404 632 500 632 q 303 617 358 632 q 217 589 249 603 l 186 574 l 186 0 z "},"Ō":{"ha":919,"x_min":83,"x_max":838,"o":"m 172 478 q 231 160 172 257 q 460 64 289 64 q 690 158 632 64 q 749 474 749 253 q 688 799 749 696 q 460 901 626 901 q 228 790 288 901 q 184 660 196 733 q 172 478 172 586 m 838 475 q 838 346 838 475 q 756 101 838 217 q 460 -14 675 -14 q 165 104 246 -14 q 83 477 83 222 q 165 856 83 732 q 460 979 247 979 q 755 856 672 979 q 838 475 838 733 m 250 1138 l 250 1206 l 669 1206 l 669 1138 l 250 1138 z "},"ō":{"ha":732,"x_min":75,"x_max":657,"o":"m 366 708 q 445 708 366 708 q 591 626 525 708 q 657 349 657 544 q 597 69 657 153 q 367 -14 536 -14 q 136 69 197 -14 q 75 349 75 153 q 141 626 75 544 q 366 708 207 708 m 366 60 q 430 60 366 60 q 533 124 494 60 q 572 351 572 188 q 528 574 572 514 q 367 635 485 635 q 205 575 249 635 q 161 351 161 515 q 199 123 161 186 q 366 60 238 60 m 179 897 l 179 965 l 557 965 l 557 897 l 179 897 z "},"Ŏ":{"ha":919,"x_min":83,"x_max":838,"o":"m 172 478 q 231 160 172 257 q 460 64 289 64 q 690 158 632 64 q 749 474 749 253 q 688 799 749 696 q 460 901 626 901 q 228 790 288 901 q 184 660 196 733 q 172 478 172 586 m 838 475 q 838 346 838 475 q 756 101 838 217 q 460 -14 675 -14 q 165 104 246 -14 q 83 477 83 222 q 165 856 83 732 q 460 979 247 979 q 755 856 672 979 q 838 475 838 733 m 370 1198 q 389 1183 370 1198 q 461 1168 407 1168 q 553 1198 515 1168 q 592 1278 590 1228 l 669 1278 q 610 1150 668 1199 q 461 1101 551 1101 q 313 1150 371 1101 q 253 1278 256 1199 l 332 1278 q 370 1198 333 1228 z "},"ŏ":{"ha":732,"x_min":75,"x_max":657,"o":"m 366 708 q 445 708 366 708 q 591 626 525 708 q 657 349 657 544 q 597 69 657 153 q 367 -14 536 -14 q 136 69 197 -14 q 75 349 75 153 q 141 626 75 544 q 366 708 207 708 m 366 60 q 430 60 366 60 q 533 124 494 60 q 572 351 572 188 q 528 574 572 514 q 367 635 485 635 q 205 575 249 635 q 161 351 161 515 q 199 123 161 186 q 366 60 238 60 m 240 1007 q 276 917 242 951 q 369 883 310 883 q 463 918 428 883 q 499 1007 497 953 l 571 1007 q 513 872 568 925 q 369 818 458 818 q 226 872 281 818 q 169 1007 172 925 l 240 1007 z "},"Ő":{"ha":919,"x_min":83,"x_max":838,"o":"m 172 478 q 231 160 172 257 q 460 64 289 64 q 690 158 632 64 q 749 474 749 253 q 688 799 749 696 q 460 901 626 901 q 228 790 288 901 q 184 660 196 733 q 172 478 172 586 m 838 475 q 838 346 838 475 q 756 101 838 217 q 460 -14 675 -14 q 165 104 246 -14 q 83 477 83 222 q 165 856 83 732 q 460 979 247 979 q 755 856 672 979 q 838 475 838 733 m 478 1093 l 700 1251 l 757 1207 l 529 1049 l 478 1093 m 207 1093 l 431 1253 l 485 1207 l 260 1050 l 207 1093 z "},"ő":{"ha":732,"x_min":75,"x_max":674,"o":"m 366 708 q 445 708 366 708 q 591 626 525 708 q 657 349 657 544 q 597 69 657 153 q 367 -14 536 -14 q 136 69 197 -14 q 75 349 75 153 q 141 626 75 544 q 366 708 207 708 m 366 60 q 430 60 366 60 q 533 124 494 60 q 572 351 572 188 q 528 574 572 514 q 367 635 485 635 q 205 575 249 635 q 161 351 161 515 q 199 123 161 186 q 366 60 238 60 m 407 865 l 617 1040 l 674 989 l 461 815 l 407 865 m 143 865 l 354 1040 l 410 989 l 197 815 l 143 865 z "},"Œ":{"ha":1292,"x_min":83,"x_max":1225,"o":"m 1225 -1 l 658 -1 q 453 -14 531 -14 q 162 103 240 -14 q 83 480 83 221 q 164 860 83 739 q 453 982 244 982 q 657 968 571 982 l 1225 968 l 1225 885 l 742 885 l 742 538 l 1142 538 l 1142 454 l 742 454 l 742 83 l 1225 83 l 1225 -1 m 226 172 q 241 145 226 172 q 314 94 257 118 q 449 69 371 69 q 657 81 528 69 l 657 885 q 460 900 479 900 q 232 802 292 900 q 172 481 172 704 q 183 298 172 369 q 226 172 194 226 z "},"œ":{"ha":1199,"x_min":75,"x_max":1132,"o":"m 850 63 q 1064 72 919 63 l 1104 75 l 1107 6 q 842 -14 950 -14 q 613 121 671 -14 q 527 18 585 50 q 368 -14 469 -14 q 137 70 199 -14 q 75 349 75 154 q 142 626 75 544 q 368 707 210 707 q 526 671 465 707 q 617 554 586 635 q 858 707 679 707 q 1064 628 996 707 q 1132 379 1132 550 l 1129 313 l 657 313 q 701 124 657 185 q 850 63 744 63 m 161 352 q 161 271 161 352 q 201 126 161 190 q 367 61 240 61 q 533 128 494 61 q 572 349 572 194 q 524 568 572 504 q 363 632 475 632 q 206 573 250 632 q 161 352 161 514 m 657 382 l 1049 382 q 1003 576 1049 518 q 858 633 958 633 q 657 382 657 633 z "},"Ŕ":{"ha":854,"x_min":121,"x_max":788,"o":"m 207 381 l 207 0 l 121 0 l 121 965 l 475 965 q 701 897 626 965 q 775 679 775 828 q 589 397 775 447 l 788 0 l 692 0 l 501 381 l 207 381 m 686 678 q 635 838 686 786 q 475 889 583 889 l 207 889 l 207 457 l 475 457 q 686 678 686 457 m 265 1151 l 553 1289 l 583 1214 l 293 1092 l 265 1151 z "},"ŕ":{"ha":471,"x_min":99,"x_max":449,"o":"m 104 0 l 104 694 l 186 694 l 186 594 q 312 664 238 631 q 449 708 386 697 l 449 625 q 324 587 389 613 q 222 542 258 561 l 186 521 l 186 0 l 104 0 m 99 889 l 386 1024 l 417 951 l 125 831 l 99 889 z "},"Ŗ":{"ha":854,"x_min":121,"x_max":788,"o":"m 353 -386 l 407 -108 l 490 -108 l 424 -386 l 353 -386 m 207 381 l 207 0 l 121 0 l 121 965 l 475 965 q 701 897 626 965 q 775 679 775 828 q 589 397 775 447 l 788 0 l 692 0 l 501 381 l 207 381 m 686 678 q 635 838 686 786 q 475 889 583 889 l 207 889 l 207 457 l 475 457 q 686 678 686 457 z "},"ŗ":{"ha":471,"x_min":49,"x_max":449,"o":"m 104 -108 l 188 -108 l 121 -386 l 49 -386 l 104 -108 m 104 0 l 104 694 l 186 694 l 186 594 q 312 664 238 631 q 449 708 386 697 l 449 625 q 324 587 389 613 q 222 542 258 561 l 186 521 l 186 0 l 104 0 z "},"Ř":{"ha":854,"x_min":121,"x_max":788,"o":"m 207 381 l 207 0 l 121 0 l 121 965 l 475 965 q 701 897 626 965 q 775 679 775 828 q 589 397 775 447 l 788 0 l 692 0 l 501 381 l 207 381 m 686 678 q 635 838 686 786 q 475 889 583 889 l 207 889 l 207 457 l 475 457 q 686 678 686 457 m 381 1108 l 194 1290 l 290 1290 l 417 1171 l 542 1290 l 639 1290 l 453 1108 l 381 1108 z "},"ř":{"ha":471,"x_min":43,"x_max":449,"o":"m 104 0 l 104 694 l 186 694 l 186 594 q 312 664 238 631 q 449 708 386 697 l 449 625 q 324 587 389 613 q 222 542 258 561 l 186 521 l 186 0 l 104 0 m 213 826 l 43 1017 l 129 1017 l 243 890 l 356 1017 l 442 1017 l 271 826 l 213 826 z "},"Ś":{"ha":751,"x_min":71,"x_max":682,"o":"m 382 904 q 158 733 158 904 q 209 599 158 633 q 408 535 260 564 q 619 454 556 506 q 682 282 682 403 q 605 58 682 126 q 379 -11 528 -11 q 128 8 271 -11 l 78 15 l 88 89 q 382 65 278 65 q 540 116 486 65 q 594 265 594 167 q 547 398 594 363 q 394 453 499 433 q 240 488 289 472 q 149 534 192 504 q 89 610 107 564 q 71 728 71 657 q 376 981 71 981 q 615 961 468 981 l 661 954 l 654 881 q 382 904 463 904 m 233 1151 l 521 1289 l 551 1214 l 261 1092 l 233 1151 z "},"ś":{"ha":644,"x_min":65,"x_max":581,"o":"m 314 632 q 150 514 150 632 q 186 438 150 460 q 349 394 222 415 q 528 335 476 372 q 581 191 581 297 q 513 35 581 85 q 313 -14 444 -14 q 115 6 236 -14 l 75 11 l 81 85 q 319 61 236 61 q 449 90 403 61 q 496 189 496 119 q 458 281 496 258 q 294 324 419 304 q 117 379 168 343 q 65 515 65 415 q 136 661 65 615 q 311 707 207 707 q 519 689 394 707 l 557 683 l 554 610 q 314 632 406 632 m 165 889 l 453 1024 l 483 951 l 192 831 l 165 889 z "},"Ŝ":{"ha":751,"x_min":71,"x_max":682,"o":"m 382 904 q 158 733 158 904 q 209 599 158 633 q 408 535 260 564 q 619 454 556 506 q 682 282 682 403 q 605 58 682 126 q 379 -11 528 -11 q 128 8 271 -11 l 78 15 l 88 89 q 382 65 278 65 q 540 116 486 65 q 594 265 594 167 q 547 398 594 363 q 394 453 499 433 q 240 488 289 472 q 149 534 192 504 q 89 610 107 564 q 71 728 71 657 q 376 981 71 981 q 615 961 468 981 l 661 954 l 654 881 q 382 904 463 904 m 157 1103 l 343 1285 l 415 1285 l 601 1103 l 506 1103 l 381 1222 l 254 1103 l 157 1103 z "},"ŝ":{"ha":644,"x_min":65,"x_max":581,"o":"m 314 632 q 150 514 150 632 q 186 438 150 460 q 349 394 222 415 q 528 335 476 372 q 581 191 581 297 q 513 35 581 85 q 313 -14 444 -14 q 115 6 236 -14 l 75 11 l 81 85 q 319 61 236 61 q 449 90 403 61 q 496 189 496 119 q 458 281 496 258 q 294 324 419 304 q 117 379 168 343 q 65 515 65 415 q 136 661 65 615 q 311 707 207 707 q 519 689 394 707 l 557 683 l 554 610 q 314 632 406 632 m 125 826 l 294 1017 l 353 1017 l 524 826 l 436 826 l 325 954 l 213 826 l 125 826 z "},"Ş":{"ha":751,"x_min":71,"x_max":682,"o":"m 561 -176 q 438 -293 561 -293 l 321 -285 l 324 -229 q 422 -233 381 -233 q 485 -176 485 -233 q 422 -125 485 -125 l 357 -125 l 357 -11 q 122 8 246 -8 l 78 15 l 88 89 q 382 65 278 65 q 540 116 486 65 q 594 265 594 167 q 547 398 594 363 q 394 453 499 433 q 240 488 289 472 q 149 534 192 504 q 89 610 107 564 q 71 728 71 657 q 376 981 71 981 q 615 961 468 981 l 661 954 l 654 881 q 382 904 463 904 q 158 733 158 904 q 209 599 158 633 q 408 535 260 564 q 619 454 556 506 q 682 269 682 403 q 410 -10 682 4 l 410 -72 q 526 -94 490 -72 q 561 -176 561 -115 z "},"ş":{"ha":644,"x_min":65,"x_max":581,"o":"m 488 -176 q 364 -293 488 -293 l 247 -285 l 250 -229 q 349 -233 307 -233 q 411 -176 411 -233 q 349 -125 411 -125 l 283 -125 l 283 -12 q 108 6 218 -10 l 75 11 l 81 85 q 319 61 236 61 q 449 90 403 61 q 496 189 496 119 q 458 281 496 258 q 294 324 419 304 q 117 379 168 343 q 65 515 65 415 q 136 661 65 615 q 311 707 207 707 q 519 689 394 707 l 557 683 l 554 610 q 314 632 406 632 q 150 514 150 632 q 186 438 150 460 q 349 394 222 415 q 528 335 476 372 q 581 193 581 297 q 519 40 581 89 q 336 -14 457 -10 l 336 -72 q 452 -94 417 -72 q 488 -176 488 -115 z "},"Š":{"ha":751,"x_min":71,"x_max":682,"o":"m 382 904 q 158 733 158 904 q 209 599 158 633 q 408 535 260 564 q 619 454 556 506 q 682 282 682 403 q 605 58 682 126 q 379 -11 528 -11 q 128 8 271 -11 l 78 15 l 88 89 q 382 65 278 65 q 540 116 486 65 q 594 265 594 167 q 547 398 594 363 q 394 453 499 433 q 240 488 289 472 q 149 534 192 504 q 89 610 107 564 q 71 728 71 657 q 376 981 71 981 q 615 961 468 981 l 661 954 l 654 881 q 382 904 463 904 m 351 1108 l 165 1290 l 261 1290 l 388 1171 l 513 1290 l 610 1290 l 424 1108 l 351 1108 z "},"š":{"ha":644,"x_min":65,"x_max":581,"o":"m 314 632 q 150 514 150 632 q 186 438 150 460 q 349 394 222 415 q 528 335 476 372 q 581 191 581 297 q 513 35 581 85 q 313 -14 444 -14 q 115 6 236 -14 l 75 11 l 81 85 q 319 61 236 61 q 449 90 403 61 q 496 189 496 119 q 458 281 496 258 q 294 324 419 304 q 117 379 168 343 q 65 515 65 415 q 136 661 65 615 q 311 707 207 707 q 519 689 394 707 l 557 683 l 554 610 q 314 632 406 632 m 304 826 l 135 1017 l 221 1017 l 335 890 l 447 1017 l 533 1017 l 363 826 l 304 826 z "},"Ţ":{"ha":0,"x_min":0,"x_max":0,"o":""},"ţ":{"ha":482,"x_min":38,"x_max":468,"o":"m 456 621 l 224 621 l 224 278 q 243 101 224 143 q 335 60 263 60 l 463 69 l 468 -1 q 328 -15 376 -15 q 181 37 222 -15 q 140 236 140 89 l 140 621 l 38 621 l 38 694 l 140 694 l 140 913 l 224 913 l 224 694 l 456 694 l 456 621 m 361 -176 q 238 -293 361 -293 l 121 -285 l 124 -229 q 222 -233 181 -233 q 285 -176 285 -233 q 222 -125 285 -125 l 157 -125 l 157 1 l 210 1 l 210 -72 q 326 -94 290 -72 q 361 -176 361 -115 z "},"Ť":{"ha":731,"x_min":18,"x_max":713,"o":"m 18 888 l 18 965 l 713 965 l 713 888 l 410 888 l 410 0 l 324 0 l 324 888 l 18 888 m 331 1108 l 144 1290 l 240 1290 l 367 1171 l 492 1290 l 589 1290 l 403 1108 l 331 1108 z "},"ť":{"ha":581,"x_min":39,"x_max":592,"o":"m 457 618 l 224 618 l 224 281 q 243 104 224 146 q 335 63 263 63 l 463 72 l 468 -1 q 328 -15 376 -15 q 182 37 222 -15 q 142 236 142 89 l 142 618 l 39 618 l 39 694 l 142 694 l 142 913 l 224 913 l 224 694 l 457 694 l 457 618 m 592 968 l 592 653 l 511 653 l 511 968 l 592 968 z "},"Ŧ":{"ha":735,"x_min":21,"x_max":715,"o":"m 21 888 l 21 965 l 715 965 l 715 888 l 413 888 l 413 507 l 649 507 l 649 433 l 413 433 l 413 0 l 326 0 l 326 433 l 90 433 l 90 507 l 326 507 l 326 888 l 21 888 z "},"ŧ":{"ha":488,"x_min":42,"x_max":472,"o":"m 460 618 l 228 618 l 228 435 l 429 435 l 429 367 l 228 367 l 228 281 q 247 104 228 146 q 339 63 267 63 l 467 72 l 472 -1 q 332 -15 381 -15 q 185 37 226 -15 q 144 236 144 89 l 144 367 l 61 367 l 61 435 l 144 435 l 144 618 l 42 618 l 42 694 l 144 694 l 144 913 l 228 913 l 228 694 l 460 694 l 460 618 z "},"Ũ":{"ha":892,"x_min":115,"x_max":776,"o":"m 200 283 q 440 64 200 64 q 628 115 565 64 q 690 283 690 167 l 690 965 l 776 965 l 776 283 q 692 56 776 126 q 444 -14 607 -14 q 198 56 281 -14 q 115 283 115 126 l 115 965 l 200 965 l 200 283 m 557 1131 q 444 1170 529 1131 q 342 1210 358 1210 q 258 1158 310 1210 l 240 1140 l 219 1204 q 338 1282 285 1282 q 457 1244 372 1282 q 558 1206 542 1206 q 635 1253 585 1206 l 651 1269 l 672 1207 q 557 1131 608 1131 z "},"ũ":{"ha":729,"x_min":97,"x_max":625,"o":"m 625 694 l 625 0 l 543 0 l 543 51 l 514 36 q 430 3 483 19 q 329 -14 376 -14 q 142 58 188 -14 q 97 332 97 131 q 97 694 97 332 l 179 694 l 179 333 q 209 117 179 172 q 344 61 239 61 q 543 119 449 61 l 543 694 l 625 694 m 467 860 q 364 894 438 860 q 272 928 290 928 q 188 886 240 928 l 169 871 l 149 926 q 271 996 218 996 q 374 963 300 996 q 464 929 449 929 q 543 969 494 929 l 560 983 l 579 925 q 467 860 517 860 z "},"Ū":{"ha":892,"x_min":115,"x_max":776,"o":"m 200 283 q 440 64 200 64 q 628 115 565 64 q 690 283 690 167 l 690 965 l 776 965 l 776 283 q 692 56 776 126 q 444 -14 607 -14 q 198 56 281 -14 q 115 283 115 126 l 115 965 l 200 965 l 200 283 m 238 1138 l 238 1206 l 657 1206 l 657 1138 l 238 1138 z "},"ū":{"ha":729,"x_min":97,"x_max":625,"o":"m 625 694 l 625 0 l 543 0 l 543 51 l 514 36 q 430 3 483 19 q 329 -14 376 -14 q 142 58 188 -14 q 97 332 97 131 q 97 694 97 332 l 179 694 l 179 333 q 209 117 179 172 q 344 61 239 61 q 543 119 449 61 l 543 694 l 625 694 m 174 876 l 174 944 l 551 944 l 551 876 l 174 876 z "},"Ŭ":{"ha":892,"x_min":115,"x_max":776,"o":"m 200 283 q 440 64 200 64 q 628 115 565 64 q 690 283 690 167 l 690 965 l 776 965 l 776 283 q 692 56 776 126 q 444 -14 607 -14 q 198 56 281 -14 q 115 283 115 126 l 115 965 l 200 965 l 200 283 m 356 1198 q 375 1183 356 1198 q 447 1168 393 1168 q 539 1198 501 1168 q 578 1278 576 1228 l 656 1278 q 596 1150 654 1199 q 447 1101 538 1101 q 299 1150 357 1101 q 239 1278 242 1199 l 318 1278 q 356 1198 319 1228 z "},"ŭ":{"ha":729,"x_min":97,"x_max":625,"o":"m 625 694 l 625 0 l 543 0 l 543 51 l 514 36 q 430 3 483 19 q 329 -14 376 -14 q 142 58 188 -14 q 97 332 97 131 q 97 694 97 332 l 179 694 l 179 333 q 209 117 179 172 q 344 61 239 61 q 543 119 449 61 l 543 694 l 625 694 m 260 917 q 277 900 260 917 q 354 883 294 883 q 448 918 414 883 q 483 1007 482 953 l 556 1007 q 498 872 553 925 q 354 818 443 818 q 211 872 265 818 q 154 1007 157 925 l 225 1007 q 260 917 226 951 z "},"Ů":{"ha":892,"x_min":115,"x_max":776,"o":"m 200 283 q 440 64 200 64 q 628 115 565 64 q 690 283 690 167 l 690 965 l 776 965 l 776 283 q 692 56 776 126 q 444 -14 607 -14 q 198 56 281 -14 q 115 283 115 126 l 115 965 l 200 965 l 200 283 m 447 1315 q 481 1315 447 1315 q 558 1278 515 1315 q 600 1176 600 1240 q 558 1074 600 1111 q 447 1036 515 1036 q 337 1074 379 1036 q 294 1176 294 1111 q 337 1278 294 1240 q 447 1315 379 1315 m 383 1234 q 371 1224 383 1234 q 360 1176 360 1214 q 383 1118 360 1139 q 447 1097 406 1097 q 512 1118 489 1097 q 535 1176 535 1139 q 512 1234 535 1214 q 447 1254 489 1254 q 383 1234 406 1254 z "},"ů":{"ha":729,"x_min":97,"x_max":625,"o":"m 625 694 l 625 0 l 543 0 l 543 51 l 514 36 q 430 3 483 19 q 329 -14 376 -14 q 142 58 188 -14 q 97 332 97 131 q 97 694 97 332 l 179 694 l 179 333 q 209 117 179 172 q 344 61 239 61 q 543 119 449 61 l 543 694 l 625 694 m 363 758 q 334 758 363 758 q 264 799 304 758 q 224 898 224 839 q 264 997 224 957 q 363 1038 304 1038 q 463 997 422 1038 q 503 898 503 957 q 463 799 503 839 q 363 758 422 758 m 363 979 q 346 979 363 979 q 306 956 329 979 q 283 898 283 932 q 306 840 283 864 q 363 815 329 815 q 420 840 397 815 q 443 898 443 864 q 420 956 443 932 q 363 979 397 979 z "},"Ű":{"ha":892,"x_min":115,"x_max":776,"o":"m 200 283 q 440 64 200 64 q 628 115 565 64 q 690 283 690 167 l 690 965 l 776 965 l 776 283 q 692 56 776 126 q 444 -14 607 -14 q 198 56 281 -14 q 115 283 115 126 l 115 965 l 200 965 l 200 283 m 486 1093 l 708 1251 l 765 1207 l 538 1049 l 486 1093 m 215 1093 l 439 1253 l 493 1207 l 268 1050 l 215 1093 z "},"ű":{"ha":729,"x_min":97,"x_max":685,"o":"m 625 694 l 625 0 l 543 0 l 543 51 l 514 36 q 430 3 483 19 q 329 -14 376 -14 q 142 58 188 -14 q 97 332 97 131 q 97 694 97 332 l 179 694 l 179 333 q 209 117 179 172 q 344 61 239 61 q 543 119 449 61 l 543 694 l 625 694 m 418 865 l 628 1040 l 685 989 l 472 815 l 418 865 m 154 865 l 365 1040 l 421 989 l 208 815 l 154 865 z "},"Ų":{"ha":892,"x_min":114,"x_max":775,"o":"m 199 283 q 439 64 199 64 q 626 115 564 64 q 689 283 689 167 l 689 965 l 775 965 l 775 283 q 572 0 775 47 q 499 -87 528 -44 q 469 -153 469 -129 q 486 -194 469 -176 q 529 -212 503 -212 l 601 -204 l 610 -271 q 504 -283 553 -283 q 422 -251 456 -283 q 388 -162 388 -219 q 476 -12 388 -106 q 439 -14 464 -14 q 197 56 279 -14 q 114 283 114 126 l 114 965 l 199 965 l 199 283 z "},"ų":{"ha":729,"x_min":97,"x_max":658,"o":"m 543 694 l 625 694 l 625 0 q 518 -149 518 -100 q 535 -194 518 -176 q 578 -212 551 -212 l 650 -204 l 658 -271 q 553 -283 601 -283 q 470 -251 504 -283 q 436 -172 436 -219 q 472 -78 436 -125 q 544 0 508 -32 l 543 0 l 543 49 q 329 -14 435 -14 q 142 58 188 -14 q 97 332 97 131 l 97 694 l 179 694 l 179 335 q 209 117 179 172 q 339 61 239 61 q 436 76 385 61 q 515 106 488 90 l 543 119 l 543 694 z "},"Ŵ":{"ha":1214,"x_min":46,"x_max":1168,"o":"m 46 965 l 133 965 l 308 76 l 354 76 l 557 954 l 658 954 l 860 76 l 906 76 l 1081 965 l 1168 965 l 969 0 l 797 0 l 607 847 l 417 0 l 244 0 l 46 965 m 385 1103 l 571 1285 l 643 1285 l 829 1103 l 733 1103 l 608 1222 l 482 1103 l 385 1103 z "},"ŵ":{"ha":1056,"x_min":46,"x_max":1010,"o":"m 46 694 l 131 694 l 283 72 l 303 72 l 483 681 l 571 681 l 751 72 l 772 72 l 925 694 l 1010 694 l 836 0 l 692 0 l 528 572 l 363 0 l 219 0 l 46 694 m 329 826 l 499 1017 l 557 1017 l 728 826 l 640 826 l 529 954 l 417 826 l 329 826 z "},"Ŷ":{"ha":742,"x_min":18,"x_max":724,"o":"m 414 0 l 328 0 l 328 408 l 18 965 l 114 965 l 371 497 l 626 965 l 724 965 l 414 408 l 414 0 m 149 1108 l 335 1290 l 407 1290 l 593 1108 l 497 1108 l 372 1228 l 246 1108 l 149 1108 z "},"ŷ":{"ha":664,"x_min":38,"x_max":628,"o":"m 38 694 l 122 694 l 307 72 l 357 72 l 543 694 l 628 694 l 328 -312 l 244 -312 l 338 0 l 242 0 l 38 694 m 138 826 l 307 1017 l 365 1017 l 536 826 l 449 826 l 338 954 l 225 826 l 138 826 z "},"Ÿ":{"ha":742,"x_min":18,"x_max":724,"o":"m 414 0 l 328 0 l 328 408 l 18 965 l 114 965 l 371 497 l 626 965 l 724 965 l 414 408 l 414 0 m 189 1138 l 189 1249 l 271 1249 l 271 1138 l 189 1138 m 468 1138 l 468 1249 l 549 1249 l 549 1138 l 468 1138 z "},"Ź":{"ha":746,"x_min":60,"x_max":685,"o":"m 60 888 l 60 965 l 685 965 l 685 850 l 156 106 l 156 76 l 685 76 l 685 -1 l 60 -1 l 60 113 l 589 857 l 589 888 l 60 888 m 224 1151 l 511 1289 l 542 1214 l 251 1092 l 224 1151 z "},"ź":{"ha":632,"x_min":58,"x_max":574,"o":"m 58 694 l 574 694 l 574 619 l 161 75 l 574 75 l 574 0 l 58 0 l 58 75 l 471 619 l 58 619 l 58 694 m 168 889 l 456 1024 l 486 951 l 194 831 l 168 889 z "},"Ż":{"ha":746,"x_min":60,"x_max":685,"o":"m 60 888 l 60 965 l 685 965 l 685 850 l 156 106 l 156 76 l 685 76 l 685 -1 l 60 -1 l 60 113 l 589 857 l 589 888 l 60 888 m 331 1124 l 331 1228 l 414 1228 l 414 1124 l 331 1124 z "},"ż":{"ha":632,"x_min":58,"x_max":574,"o":"m 58 694 l 574 694 l 574 619 l 161 75 l 574 75 l 574 0 l 58 0 l 58 75 l 471 619 l 58 619 l 58 694 m 274 865 l 274 969 l 357 969 l 357 865 l 274 865 z "},"Ž":{"ha":746,"x_min":60,"x_max":685,"o":"m 60 888 l 60 965 l 685 965 l 685 850 l 156 106 l 156 76 l 685 76 l 685 -1 l 60 -1 l 60 113 l 589 857 l 589 888 l 60 888 m 350 1108 l 164 1290 l 260 1290 l 386 1171 l 511 1290 l 608 1290 l 422 1108 l 350 1108 z "},"ž":{"ha":632,"x_min":58,"x_max":574,"o":"m 58 619 l 58 694 l 574 694 l 574 619 l 161 75 l 574 75 l 574 0 l 58 0 l 58 75 l 471 619 l 58 619 m 288 826 l 118 1017 l 204 1017 l 318 890 l 431 1017 l 517 1017 l 346 826 l 288 826 z "},"ƒ":{"ha":778,"x_min":51,"x_max":611,"o":"m 376 -79 q 332 -274 376 -218 q 185 -329 288 -329 l 51 -319 l 54 -247 q 188 -253 136 -253 q 267 -214 240 -253 q 293 -78 293 -175 l 293 500 l 203 500 l 203 574 l 293 574 l 293 658 q 317 842 293 783 q 378 925 340 901 q 460 949 417 949 q 590 940 528 949 l 611 938 l 610 867 q 489 872 546 872 q 376 696 376 872 l 376 574 l 586 574 l 586 500 l 376 500 l 376 -79 z "},"Ǻ":{"ha":825,"x_min":35,"x_max":790,"o":"m 413 1183 q 447 1183 413 1183 q 523 1146 481 1183 q 565 1043 565 1108 q 521 940 565 978 l 790 0 l 706 0 l 628 267 l 197 267 l 121 0 l 35 0 l 304 939 q 260 1042 260 976 q 302 1146 260 1108 q 413 1183 344 1183 m 375 890 l 218 343 l 607 343 l 450 890 l 375 890 m 247 1279 l 535 1417 l 565 1342 l 275 1219 l 247 1279 m 348 1102 q 336 1092 348 1102 q 325 1044 325 1082 q 348 986 325 1007 q 413 965 371 965 q 477 986 454 965 q 500 1044 500 1007 q 477 1102 500 1082 q 413 1122 454 1122 q 348 1102 371 1122 z "},"ǻ":{"ha":693,"x_min":60,"x_max":672,"o":"m 582 488 l 582 115 q 672 54 588 64 l 668 -12 q 511 43 561 -12 q 250 -14 381 -14 q 108 40 157 -14 q 60 192 60 93 q 109 340 60 292 q 264 399 158 388 l 500 422 l 500 488 q 466 599 500 565 q 375 633 432 633 q 144 617 286 633 l 101 613 l 97 679 q 365 708 250 708 q 531 654 479 708 q 582 488 582 600 m 146 197 q 261 57 146 57 q 371 69 311 57 q 465 93 431 81 l 500 106 l 500 357 l 274 333 q 176 294 206 328 q 146 197 146 261 m 338 758 q 309 758 338 758 q 239 799 279 758 q 199 898 199 839 q 239 997 199 957 q 338 1038 279 1038 q 438 997 397 1038 q 478 898 478 957 q 438 799 478 839 q 338 758 397 758 m 338 979 q 321 979 338 979 q 281 956 304 979 q 258 898 258 932 q 281 840 258 864 q 338 815 304 815 q 395 840 372 815 q 418 898 418 864 q 395 956 418 932 q 338 979 372 979 m 192 1136 l 479 1271 l 510 1199 l 218 1078 l 192 1136 z "},"Ǽ":{"ha":1218,"x_min":31,"x_max":1150,"o":"m 572 0 l 572 264 l 211 264 l 119 0 l 31 0 l 356 968 l 1150 968 l 1150 888 l 657 888 l 657 538 l 1067 538 l 1067 457 l 657 457 l 657 81 l 1150 81 l 1150 0 l 572 0 m 572 346 l 572 888 l 418 888 l 235 346 l 572 346 m 590 1151 l 878 1289 l 908 1214 l 618 1092 l 590 1151 z "},"ǽ":{"ha":1124,"x_min":60,"x_max":1058,"o":"m 776 63 q 989 72 844 63 l 1029 75 l 1032 6 q 768 -14 876 -14 q 565 64 631 -14 l 518 43 q 244 -14 390 -14 q 60 196 60 -14 q 116 348 60 307 q 313 404 172 389 l 500 422 l 500 485 q 367 628 500 628 q 146 617 275 628 l 103 614 l 100 689 q 369 707 261 707 q 558 594 519 707 q 785 707 626 707 q 990 628 922 707 q 1058 379 1058 550 l 1054 313 l 582 313 q 627 124 583 185 q 776 63 671 63 m 254 60 q 529 118 378 60 q 497 353 497 194 l 274 332 q 176 294 207 325 q 146 197 146 263 q 174 95 146 131 q 254 60 203 60 m 582 382 l 974 382 q 928 575 974 517 q 785 633 883 633 q 582 382 582 633 m 414 889 l 701 1024 l 732 951 l 440 831 l 414 889 z "},"Ǿ":{"ha":922,"x_min":85,"x_max":839,"o":"m 461 -14 q 288 13 363 -14 l 208 -158 l 143 -129 l 225 46 q 117 206 149 101 q 85 478 85 311 q 167 856 85 732 q 461 979 249 979 q 646 946 571 979 l 721 1106 l 786 1079 l 706 908 q 839 478 839 801 q 758 101 839 217 q 461 -14 676 -14 m 228 790 q 213 762 228 790 q 185 660 197 733 q 174 464 174 586 q 192 257 174 342 q 261 125 211 172 l 611 871 q 462 901 550 901 q 317 874 374 901 q 228 790 260 847 m 461 64 q 692 158 633 64 q 750 493 750 253 q 668 826 750 733 l 322 86 q 461 64 376 64 m 304 1151 l 592 1289 l 622 1214 l 332 1092 l 304 1151 z "},"ǿ":{"ha":732,"x_min":75,"x_max":657,"o":"m 367 708 q 475 696 429 708 l 535 840 l 594 819 l 533 674 q 657 357 657 606 q 597 69 657 153 q 367 -14 536 -14 q 257 -3 306 -14 l 194 -157 l 136 -136 l 197 18 q 102 133 129 53 q 75 357 75 214 q 141 626 75 544 q 367 708 207 708 m 367 635 q 205 575 249 635 q 161 378 161 515 q 175 180 161 242 q 231 90 189 118 l 447 625 q 367 635 417 635 m 367 60 q 533 124 494 60 q 572 367 572 188 q 503 600 572 547 q 285 68 503 600 q 367 60 318 60 m 207 889 l 494 1024 l 525 951 l 233 831 l 207 889 z "},"Ș":{"ha":751,"x_min":71,"x_max":682,"o":"m 358 -108 l 442 -108 l 375 -386 l 303 -386 l 358 -108 m 382 904 q 158 733 158 904 q 209 599 158 633 q 408 535 260 564 q 619 454 556 506 q 682 282 682 403 q 605 58 682 126 q 379 -11 528 -11 q 128 8 271 -11 l 78 15 l 88 89 q 382 65 278 65 q 540 116 486 65 q 594 265 594 167 q 547 398 594 363 q 394 453 499 433 q 240 488 289 472 q 149 534 192 504 q 89 610 107 564 q 71 728 71 657 q 376 981 71 981 q 615 961 468 981 l 661 954 l 654 881 q 382 904 463 904 z "},"ș":{"ha":644,"x_min":65,"x_max":581,"o":"m 253 -108 l 336 -108 l 269 -386 l 199 -386 l 253 -108 m 314 632 q 150 514 150 632 q 186 438 150 460 q 349 394 222 415 q 528 335 476 372 q 581 191 581 297 q 513 35 581 85 q 313 -14 444 -14 q 115 6 236 -14 l 75 11 l 81 85 q 319 61 236 61 q 449 90 403 61 q 496 189 496 119 q 458 281 496 258 q 294 324 419 304 q 117 379 168 343 q 65 515 65 415 q 136 661 65 615 q 311 707 207 707 q 519 689 394 707 l 557 683 l 554 610 q 314 632 406 632 z "},"Ț":{"ha":731,"x_min":18,"x_max":713,"o":"m 350 -108 l 433 -108 l 367 -386 l 296 -386 l 350 -108 m 18 888 l 18 965 l 713 965 l 713 888 l 410 888 l 410 0 l 324 0 l 324 888 l 18 888 z "},"ț":{"ha":482,"x_min":38,"x_max":468,"o":"m 228 -108 l 313 -108 l 244 -386 l 174 -386 l 228 -108 m 456 621 l 224 621 l 224 278 q 243 101 224 143 q 335 60 263 60 l 463 69 l 468 -1 q 328 -15 376 -15 q 181 37 222 -15 q 140 236 140 89 l 140 621 l 38 621 l 38 694 l 140 694 l 140 913 l 224 913 l 224 694 l 456 694 l 456 621 z "},"ˆ":{"ha":317,"x_min":-24,"x_max":375,"o":"m -24 826 l 146 1017 l 204 1017 l 375 826 l 288 826 l 176 954 l 64 826 l -24 826 z "},"ˇ":{"ha":317,"x_min":-22,"x_max":376,"o":"m 147 826 l -22 1017 l 64 1017 l 178 890 l 290 1017 l 376 1017 l 206 826 l 147 826 z "},"˘":{"ha":317,"x_min":-22,"x_max":379,"o":"m 49 1007 q 84 917 50 951 q 177 883 118 883 q 271 918 236 883 q 307 1007 306 953 l 379 1007 q 322 872 376 925 q 178 818 267 818 q 35 872 89 818 q -22 1007 -19 925 l 49 1007 z "},"˙":{"ha":317,"x_min":117,"x_max":200,"o":"m 117 865 l 117 969 l 200 969 l 200 865 l 117 865 z "},"˚":{"ha":317,"x_min":24,"x_max":303,"o":"m 163 758 q 134 758 163 758 q 64 799 104 758 q 24 898 24 839 q 64 997 24 957 q 163 1038 104 1038 q 263 997 222 1038 q 303 898 303 957 q 263 799 303 839 q 163 758 222 758 m 163 979 q 146 979 163 979 q 106 956 129 979 q 83 898 83 932 q 106 840 83 864 q 163 815 129 815 q 220 840 197 815 q 243 898 243 864 q 220 956 243 932 q 163 979 197 979 z "},"˛":{"ha":617,"x_min":251,"x_max":474,"o":"m 333 -149 q 350 -194 333 -176 q 393 -212 367 -212 l 465 -204 l 474 -271 q 368 -283 417 -283 q 285 -251 319 -283 q 251 -176 251 -219 q 280 -88 251 -132 q 336 -17 308 -44 l 365 10 l 438 1 q 333 -149 333 -104 z "},"˜":{"ha":317,"x_min":-44,"x_max":386,"o":"m 274 860 q 171 894 244 860 q 81 928 97 928 q -6 886 47 928 l -24 871 l -44 926 q 78 996 25 996 q 181 963 107 996 q 272 929 256 929 q 350 969 301 929 l 367 983 l 386 925 q 274 860 324 860 z "},"˝":{"ha":317,"x_min":-71,"x_max":460,"o":"m 193 865 l 403 1040 l 460 989 l 247 815 l 193 865 m -71 865 l 140 1040 l 196 989 l -17 815 l -71 865 z "},"π":{"ha":778,"x_min":32,"x_max":736,"o":"m 513 214 l 513 621 l 269 621 l 231 0 l 146 0 l 189 621 q 49 607 104 621 l 32 603 l 32 675 q 226 694 113 694 l 547 694 q 713 711 635 694 l 736 715 l 736 643 q 594 624 696 626 l 594 214 q 620 97 594 125 q 722 69 646 69 l 722 -4 q 554 39 596 -4 q 513 214 513 82 z "},"Ẁ":{"ha":1214,"x_min":46,"x_max":1168,"o":"m 46 965 l 133 965 l 308 76 l 354 76 l 557 954 l 658 954 l 860 76 l 906 76 l 1081 965 l 1168 965 l 969 0 l 797 0 l 607 847 l 417 0 l 244 0 l 46 965 m 471 1289 l 758 1151 l 731 1092 l 440 1214 l 471 1289 z "},"ẁ":{"ha":1056,"x_min":46,"x_max":1010,"o":"m 46 694 l 131 694 l 283 72 l 303 72 l 483 681 l 571 681 l 751 72 l 772 72 l 925 694 l 1010 694 l 836 0 l 692 0 l 528 572 l 363 0 l 219 0 l 46 694 m 368 1024 l 656 889 l 629 831 l 338 951 l 368 1024 z "},"Ẃ":{"ha":1214,"x_min":46,"x_max":1168,"o":"m 46 965 l 133 965 l 308 76 l 354 76 l 557 954 l 658 954 l 860 76 l 906 76 l 1081 965 l 1168 965 l 969 0 l 797 0 l 607 847 l 417 0 l 244 0 l 46 965 m 461 1151 l 749 1289 l 779 1214 l 489 1092 l 461 1151 z "},"ẃ":{"ha":1056,"x_min":46,"x_max":1010,"o":"m 46 694 l 131 694 l 283 72 l 303 72 l 483 681 l 571 681 l 751 72 l 772 72 l 925 694 l 1010 694 l 836 0 l 692 0 l 528 572 l 363 0 l 219 0 l 46 694 m 394 889 l 682 1024 l 713 951 l 421 831 l 394 889 z "},"Ẅ":{"ha":1214,"x_min":46,"x_max":1168,"o":"m 46 965 l 133 965 l 308 76 l 354 76 l 557 954 l 658 954 l 860 76 l 906 76 l 1081 965 l 1168 965 l 969 0 l 797 0 l 607 847 l 417 0 l 244 0 l 46 965 m 426 1138 l 426 1249 l 508 1249 l 508 1138 l 426 1138 m 706 1138 l 706 1249 l 786 1249 l 786 1138 l 706 1138 z "},"ẅ":{"ha":1056,"x_min":46,"x_max":1010,"o":"m 46 694 l 131 694 l 283 72 l 303 72 l 483 681 l 571 681 l 751 72 l 772 72 l 925 694 l 1010 694 l 836 0 l 692 0 l 528 572 l 363 0 l 219 0 l 46 694 m 351 871 l 351 982 l 433 982 l 433 871 l 351 871 m 625 871 l 625 982 l 706 982 l 706 871 l 625 871 z "},"ẫ":{"ha":693,"x_min":60,"x_max":672,"o":"m 582 488 l 582 115 q 672 54 588 64 l 668 -12 q 511 43 561 -12 q 250 -14 381 -14 q 108 40 157 -14 q 60 192 60 93 q 109 340 60 292 q 264 399 158 388 l 500 422 l 500 488 q 466 599 500 565 q 375 633 432 633 q 144 617 286 633 l 101 613 l 97 679 q 365 708 250 708 q 531 654 479 708 q 582 488 582 600 m 146 197 q 261 57 146 57 q 371 69 311 57 q 465 93 431 81 l 500 106 l 500 357 l 274 333 q 176 294 206 328 q 146 197 146 261 m 128 785 l 297 975 l 356 975 l 526 785 l 439 785 l 328 913 l 215 785 l 128 785 m 415 1019 q 313 1053 386 1019 q 222 1088 239 1088 q 136 1044 192 1088 l 118 1031 l 97 1086 q 219 1156 167 1156 q 323 1122 249 1156 q 414 1089 397 1089 q 492 1131 440 1089 l 508 1143 l 528 1085 q 415 1019 465 1019 z "},"Ằ":{"ha":822,"x_min":35,"x_max":788,"o":"m 35 0 l 313 968 l 514 968 l 788 1 l 701 1 l 621 264 l 199 264 l 121 0 l 35 0 m 375 889 l 219 346 l 601 346 l 447 889 l 375 889 m 317 1152 q 336 1137 317 1152 q 408 1122 354 1122 q 500 1152 463 1122 q 539 1232 538 1182 l 617 1232 q 557 1104 615 1153 q 408 1056 499 1056 q 260 1104 318 1056 q 200 1232 203 1153 l 279 1232 q 317 1152 281 1182 m 203 1493 l 490 1358 l 464 1300 l 172 1421 l 203 1493 z "},"ễ":{"ha":700,"x_min":74,"x_max":633,"o":"m 351 63 q 564 72 421 63 l 606 75 l 608 6 q 343 -14 451 -14 q 133 75 193 -12 q 74 344 74 163 q 360 707 74 707 q 565 628 497 707 q 633 379 633 550 l 631 313 l 158 313 q 202 124 158 185 q 351 63 246 63 m 158 382 l 550 382 q 505 576 550 518 q 360 633 460 633 q 158 382 158 633 m 156 785 l 325 975 l 383 975 l 554 785 l 467 785 l 356 913 l 243 785 l 156 785 m 450 1019 q 347 1053 421 1019 q 256 1088 274 1088 q 171 1044 226 1088 l 153 1031 l 132 1086 q 254 1156 201 1156 q 358 1122 283 1156 q 447 1089 432 1089 q 526 1131 475 1089 l 543 1143 l 563 1085 q 450 1019 500 1019 z "},"ỗ":{"ha":732,"x_min":75,"x_max":657,"o":"m 366 708 q 445 708 366 708 q 591 626 525 708 q 657 349 657 544 q 597 69 657 153 q 367 -14 536 -14 q 136 69 197 -14 q 75 349 75 153 q 141 626 75 544 q 366 708 207 708 m 366 60 q 430 60 366 60 q 533 124 494 60 q 572 351 572 188 q 528 574 572 514 q 367 635 485 635 q 205 575 249 635 q 161 351 161 515 q 199 123 161 186 q 366 60 238 60 m 157 785 l 326 975 l 385 975 l 556 785 l 468 785 l 357 913 l 244 785 l 157 785 m 442 1019 q 339 1053 413 1019 q 247 1088 265 1088 q 163 1044 218 1088 l 144 1031 l 124 1086 q 246 1156 193 1156 q 349 1122 275 1156 q 439 1089 424 1089 q 518 1131 467 1089 l 535 1143 l 554 1085 q 442 1019 492 1019 z "},"Ỳ":{"ha":742,"x_min":18,"x_max":724,"o":"m 414 0 l 328 0 l 328 408 l 18 965 l 114 965 l 371 497 l 626 965 l 724 965 l 414 408 l 414 0 m 224 1289 l 511 1151 l 483 1092 l 193 1214 l 224 1289 z "},"ỳ":{"ha":664,"x_min":38,"x_max":628,"o":"m 38 694 l 122 694 l 307 72 l 357 72 l 543 694 l 628 694 l 328 -312 l 244 -312 l 338 0 l 242 0 l 38 694 m 183 1024 l 471 889 l 444 831 l 153 951 l 183 1024 z "},"Ỹ":{"ha":733,"x_min":15,"x_max":718,"o":"m 411 0 l 325 0 l 325 415 l 15 968 l 111 968 l 368 511 l 621 968 l 718 968 l 411 415 l 411 0 m 463 1135 q 360 1169 433 1135 q 269 1203 286 1203 q 183 1161 236 1203 l 165 1146 l 144 1201 q 267 1271 214 1271 q 370 1238 296 1271 q 461 1204 444 1204 q 539 1244 490 1204 l 556 1258 l 575 1200 q 463 1135 513 1135 z "},"ỹ":{"ha":664,"x_min":38,"x_max":628,"o":"m 38 694 l 122 694 l 307 79 l 357 79 l 543 694 l 628 694 l 328 -312 l 244 -312 l 336 0 l 242 0 l 38 694 m 426 860 q 324 894 397 860 q 233 928 250 928 q 147 886 200 928 l 129 871 l 108 926 q 231 996 178 996 q 334 963 260 996 q 425 929 408 929 q 503 969 454 929 l 519 983 l 539 925 q 426 860 476 860 z "},"–":{"ha":883,"x_min":94,"x_max":789,"o":"m 94 410 l 789 410 l 789 335 l 94 335 l 94 410 z "},"—":{"ha":1578,"x_min":94,"x_max":1483,"o":"m 94 410 l 1483 410 l 1483 335 l 94 335 l 94 410 z "},"‘":{"ha":290,"x_min":76,"x_max":224,"o":"m 224 993 l 165 700 l 76 700 l 157 993 l 224 993 z "},"’":{"ha":288,"x_min":79,"x_max":226,"o":"m 79 699 l 138 992 l 226 992 l 146 699 l 79 699 z "},"‚":{"ha":289,"x_min":72,"x_max":146,"o":"m 146 78 l 117 -68 l 72 -68 l 113 78 l 146 78 z "},"“":{"ha":493,"x_min":76,"x_max":426,"o":"m 426 993 l 368 700 l 279 700 l 360 993 l 426 993 m 224 993 l 165 700 l 76 700 l 157 993 l 224 993 z "},"”":{"ha":501,"x_min":79,"x_max":440,"o":"m 79 700 l 138 993 l 226 993 l 146 700 l 79 700 m 293 700 l 351 993 l 440 993 l 360 700 l 293 700 z "},"„":{"ha":476,"x_min":40,"x_max":386,"o":"m 188 154 l 129 -139 l 40 -139 l 121 154 l 188 154 m 386 154 l 328 -139 l 239 -139 l 319 154 l 386 154 z "},"†":{"ha":664,"x_min":49,"x_max":614,"o":"m 49 619 l 49 694 l 290 694 l 290 965 l 374 965 l 374 694 l 614 694 l 614 619 l 374 619 l 368 -107 l 294 -107 l 290 619 l 49 619 z "},"‡":{"ha":726,"x_min":81,"x_max":646,"o":"m 322 -107 l 322 164 l 81 164 l 81 236 l 322 236 l 322 619 l 81 619 l 81 694 l 322 694 l 322 965 l 404 965 l 404 694 l 646 694 l 646 619 l 404 619 l 404 236 l 646 236 l 646 164 l 404 164 l 404 -107 l 322 -107 z "},"•":{"ha":664,"x_min":158,"x_max":506,"o":"m 158 149 l 158 549 l 506 549 l 506 149 l 158 149 z "},"…":{"ha":993,"x_min":97,"x_max":896,"o":"m 97 0 l 97 140 l 189 140 l 189 0 l 97 0 m 450 0 l 450 140 l 542 140 l 542 0 l 450 0 m 804 0 l 804 140 l 896 140 l 896 0 l 804 0 z "},"‰":{"ha":1156,"x_min":56,"x_max":1104,"o":"m 205 869 q 184 869 205 869 q 144 838 163 869 q 126 742 126 807 q 204 607 126 607 q 265 640 247 607 q 283 740 283 672 q 265 838 283 807 q 205 869 247 869 m 238 -4 l 511 939 l 569 921 l 294 -21 l 238 -4 m 56 742 q 205 931 56 931 q 354 740 354 931 q 314 594 354 643 q 204 546 274 546 q 95 594 135 546 q 56 742 56 643 m 447 182 q 597 371 447 371 q 746 181 746 371 q 706 35 746 83 q 597 -14 667 -14 q 487 35 526 -14 q 447 182 447 83 m 518 182 q 597 47 518 47 q 657 81 639 47 q 675 181 675 114 q 658 279 675 249 q 597 310 640 310 q 536 279 554 310 q 518 182 518 249 m 806 182 q 955 371 806 371 q 1104 181 1104 371 q 1064 35 1104 83 q 954 -14 1024 -14 q 845 35 885 -14 q 806 182 806 83 m 876 182 q 955 47 876 47 q 1033 181 1033 47 q 1015 278 1033 247 q 955 310 997 310 q 894 279 913 310 q 876 182 876 249 z "},"‹":{"ha":413,"x_min":64,"x_max":315,"o":"m 315 486 l 136 349 l 315 197 l 315 108 l 64 311 l 64 382 l 315 574 l 315 486 z "},"›":{"ha":413,"x_min":97,"x_max":349,"o":"m 275 353 l 97 489 l 97 576 l 349 385 l 349 314 l 97 111 l 97 201 l 275 353 z "},"⁄":{"ha":0,"x_min":-311,"x_max":283,"o":"m -311 39 l 233 915 l 283 883 l -261 8 l -311 39 z "},"⁰":{"ha":389,"x_min":33,"x_max":354,"o":"m 33 881 q 33 943 33 881 q 74 1058 33 1006 q 194 1110 115 1110 q 314 1058 274 1110 q 354 881 354 1006 q 314 703 354 756 q 194 650 274 650 q 74 703 115 650 q 33 881 33 756 m 281 880 q 281 924 281 880 q 260 1006 281 968 q 194 1043 239 1043 q 128 1006 149 1043 q 107 880 107 968 q 129 755 107 792 q 194 718 151 718 q 259 755 238 718 q 281 880 281 792 z "},"⁴":{"ha":389,"x_min":38,"x_max":351,"o":"m 235 664 l 235 735 l 38 735 l 38 799 l 143 1097 l 224 1097 l 115 803 l 235 803 l 240 925 l 308 925 l 308 803 l 351 803 l 351 735 l 308 735 l 308 664 l 235 664 z "},"⁵":{"ha":389,"x_min":57,"x_max":344,"o":"m 206 872 q 124 847 165 872 l 64 854 l 78 1097 l 331 1097 l 331 1032 l 139 1032 l 131 914 q 217 938 172 938 q 344 801 344 938 q 203 651 344 651 q 79 665 153 651 l 57 669 l 64 731 q 197 718 139 718 q 269 795 269 718 q 206 872 269 872 z "},"⁶":{"ha":389,"x_min":44,"x_max":350,"o":"m 213 1043 q 119 924 119 1043 l 133 929 q 210 947 175 947 q 350 806 350 947 q 310 692 350 733 q 201 650 269 650 q 44 875 44 650 q 85 1054 44 999 q 211 1110 125 1110 q 311 1100 246 1110 l 331 1097 l 326 1035 q 213 1043 263 1043 m 118 857 q 199 717 122 717 q 276 800 276 717 q 211 883 276 883 q 140 871 163 883 q 118 857 118 858 z "},"⁷":{"ha":389,"x_min":42,"x_max":321,"o":"m 42 1025 l 42 1097 l 321 1097 l 321 999 l 172 651 l 94 668 l 240 994 l 240 1025 l 42 1025 z "},"⁸":{"ha":389,"x_min":35,"x_max":354,"o":"m 42 994 q 194 1110 42 1110 q 347 993 347 1110 q 332 927 347 950 q 282 893 317 904 q 354 785 354 871 q 194 650 354 650 q 35 779 35 650 q 107 893 35 863 q 58 928 74 906 q 42 994 42 950 m 108 782 q 194 714 108 714 q 281 785 281 714 q 215 863 281 844 l 174 863 q 108 782 108 843 m 275 988 q 194 1046 275 1046 q 114 989 114 1046 q 128 947 114 961 q 174 921 142 932 l 215 921 q 262 946 249 932 q 275 988 275 960 z "},"⁹":{"ha":389,"x_min":39,"x_max":349,"o":"m 175 718 q 274 835 271 718 l 260 831 q 179 817 214 817 q 76 855 113 817 q 39 963 39 893 q 81 1071 39 1032 q 189 1110 122 1110 q 349 878 349 1110 q 308 705 349 760 q 179 650 267 650 q 75 661 139 650 l 57 665 l 63 728 q 175 718 122 718 m 113 961 q 133 901 113 925 q 178 878 153 878 q 261 894 218 878 l 275 899 q 255 1008 274 974 q 192 1043 236 1043 q 113 961 113 1043 z "},"₀":{"ha":389,"x_min":33,"x_max":354,"o":"m 33 78 q 33 140 33 78 q 74 255 33 203 q 194 307 115 307 q 314 255 274 307 q 354 78 354 203 q 314 -100 354 -47 q 194 -153 274 -153 q 74 -100 115 -153 q 33 78 33 -47 m 281 77 q 281 121 281 77 q 260 203 281 165 q 194 240 239 240 q 128 203 149 240 q 107 77 107 165 q 129 -48 107 -11 q 194 -85 151 -85 q 259 -48 238 -85 q 281 77 281 -11 z "},"₁":{"ha":389,"x_min":71,"x_max":281,"o":"m 281 294 l 281 -139 l 207 -139 l 207 213 l 106 143 l 71 199 l 211 294 l 281 294 z "},"₂":{"ha":389,"x_min":57,"x_max":339,"o":"m 339 -139 l 57 -139 l 57 -75 l 185 57 q 240 121 222 94 q 257 179 257 147 q 185 239 257 239 l 64 226 l 61 290 q 199 307 139 307 q 332 185 332 307 q 313 104 332 138 q 246 25 293 71 l 150 -72 l 339 -72 l 339 -139 z "},"₃":{"ha":389,"x_min":46,"x_max":342,"o":"m 51 293 q 196 307 129 307 q 297 280 263 307 q 331 193 331 253 q 317 136 331 161 q 272 90 297 101 q 325 56 308 79 q 342 -19 342 32 q 199 -153 342 -153 q 69 -142 147 -153 l 46 -137 l 50 -74 q 197 -85 128 -85 q 267 -18 267 -85 q 196 51 267 51 l 106 51 l 106 115 l 194 115 q 236 136 217 115 q 256 186 256 157 q 185 240 256 240 q 75 232 131 240 l 56 229 l 51 293 z "},"₄":{"ha":389,"x_min":49,"x_max":363,"o":"m 246 -139 l 246 -68 l 49 -68 l 49 -4 l 154 294 l 235 294 l 126 0 l 246 0 l 251 122 l 319 122 l 319 0 l 363 0 l 363 -68 l 319 -68 l 319 -139 l 246 -139 z "},"₅":{"ha":389,"x_min":44,"x_max":332,"o":"m 193 69 q 111 44 153 69 l 51 51 l 65 294 l 318 294 l 318 229 l 126 229 l 118 111 q 204 135 160 135 q 332 -1 332 135 q 190 -151 332 -151 q 67 -137 140 -151 l 44 -133 l 51 -72 q 185 -85 126 -85 q 257 -8 257 -85 q 193 69 257 69 z "},"₆":{"ha":389,"x_min":40,"x_max":346,"o":"m 208 240 q 115 121 115 240 l 128 126 q 206 144 171 144 q 346 3 346 144 q 306 -111 346 -69 q 197 -153 265 -153 q 40 72 40 -153 q 81 251 40 196 q 207 307 121 307 q 308 297 242 307 l 326 294 l 322 232 q 208 240 258 240 m 114 54 q 195 -86 118 -86 q 272 -3 272 -86 q 208 81 272 81 q 136 68 158 81 q 114 54 114 56 z "},"₇":{"ha":389,"x_min":56,"x_max":335,"o":"m 56 222 l 56 294 l 335 294 l 335 196 l 186 -151 l 108 -135 l 254 192 l 254 222 l 56 222 z "},"₈":{"ha":389,"x_min":33,"x_max":353,"o":"m 40 192 q 193 307 40 307 q 346 190 346 307 q 331 124 346 147 q 281 90 315 101 q 353 -18 353 68 q 193 -153 353 -153 q 33 -24 33 -153 q 106 90 33 60 q 56 125 72 103 q 40 192 40 147 m 107 -21 q 193 -89 107 -89 q 279 -18 279 -89 q 214 60 279 42 l 172 60 q 107 -21 107 40 m 274 185 q 193 243 274 243 q 113 186 113 243 q 126 144 113 158 q 172 118 140 129 l 214 118 q 260 143 247 129 q 274 185 274 157 z "},"₉":{"ha":389,"x_min":36,"x_max":346,"o":"m 172 -85 q 271 32 268 -85 l 257 28 q 176 14 211 14 q 73 52 110 14 q 36 160 36 90 q 78 268 36 229 q 186 307 119 307 q 346 75 346 307 q 305 -98 346 -43 q 176 -153 264 -153 q 72 -142 136 -153 l 54 -137 l 60 -75 q 172 -85 119 -85 m 110 158 q 130 99 110 122 q 175 75 150 75 q 258 92 213 75 l 272 96 q 252 206 271 171 q 189 240 233 240 q 110 158 110 240 z "},"€":{"ha":778,"x_min":42,"x_max":708,"o":"m 42 532 l 42 603 l 133 603 q 222 850 149 769 q 461 931 296 931 q 708 903 575 931 l 704 832 q 459 857 576 857 q 287 795 342 857 q 218 603 232 733 l 633 603 l 633 532 l 214 532 q 213 459 213 507 q 214 390 213 411 l 633 390 l 633 319 l 217 319 q 285 123 229 185 q 458 61 340 61 q 704 86 576 61 l 708 14 q 461 -14 567 -14 q 222 68 296 -14 q 133 319 149 150 l 42 319 l 42 390 l 129 390 q 128 459 128 411 q 129 532 128 507 l 42 532 z "},"™":{"ha":947,"x_min":131,"x_max":838,"o":"m 131 811 l 131 871 l 408 871 l 408 811 l 308 811 l 308 461 l 243 461 l 243 811 l 131 811 m 454 460 l 454 871 l 542 871 l 643 564 l 750 871 l 838 871 l 838 460 l 775 460 l 775 789 l 672 478 l 617 478 l 515 789 l 515 460 l 454 460 z "},"Ω":{"ha":778,"x_min":61,"x_max":717,"o":"m 61 63 l 246 63 q 201 141 228 92 q 131 312 175 190 q 88 519 88 433 q 152 833 88 735 q 389 931 217 931 q 626 833 561 931 q 690 519 690 735 q 650 319 690 433 q 569 133 610 206 l 531 63 l 717 63 l 717 -12 l 447 -12 l 447 51 q 554 296 507 165 q 601 496 601 426 q 560 773 601 692 q 389 854 519 854 q 233 797 285 854 q 181 625 190 751 q 176 500 176 574 q 215 315 176 426 q 292 128 253 204 l 329 51 l 329 -12 l 61 -12 l 61 63 z "},"∂":{"ha":778,"x_min":69,"x_max":688,"o":"m 369 1017 q 610 897 533 1017 q 688 508 688 776 q 613 114 688 240 q 375 -12 539 -12 q 150 67 231 -12 q 69 290 69 147 q 147 514 69 433 q 358 594 225 594 q 565 561 457 594 l 600 551 q 539 850 594 758 q 356 942 483 942 q 256 925 311 942 q 169 892 201 908 l 136 876 l 131 944 q 246 994 176 972 q 369 1017 315 1017 m 600 475 q 372 519 476 519 q 212 458 267 519 q 157 290 157 397 q 213 123 157 183 q 381 63 268 63 q 546 164 493 63 q 600 475 599 265 z "},"∆":{"ha":778,"x_min":76,"x_max":700,"o":"m 76 0 l 76 63 l 310 917 l 467 917 l 699 63 l 700 0 l 76 0 m 406 842 l 369 842 l 164 75 l 610 75 l 406 842 z "},"∏":{"ha":778,"x_min":42,"x_max":736,"o":"m 547 -219 l 547 968 l 229 968 l 229 -219 l 143 -219 l 143 968 l 42 968 l 42 1044 l 736 1044 l 736 968 l 633 968 l 633 -219 l 547 -219 z "},"∑":{"ha":778,"x_min":65,"x_max":708,"o":"m 65 1044 l 708 1044 l 708 967 l 154 967 l 154 933 l 525 461 l 525 397 l 154 -104 l 154 -143 l 708 -143 l 708 -219 l 65 -219 l 65 -93 l 446 431 l 65 919 l 65 1044 z "},"−":{"ha":778,"x_min":93,"x_max":685,"o":"m 93 310 l 93 388 l 685 388 l 685 310 l 93 310 z "},"√":{"ha":778,"x_min":7,"x_max":786,"o":"m 7 544 l 7 621 l 161 621 l 351 -118 l 364 -118 l 701 1075 l 786 1075 l 425 -192 l 288 -192 l 90 544 l 7 544 z "},"∞":{"ha":778,"x_min":43,"x_max":735,"o":"m 211 168 q 43 406 43 168 q 85 581 43 519 q 201 643 126 643 q 316 604 275 643 q 389 485 357 565 q 460 604 419 565 q 576 643 501 643 q 693 581 651 643 q 735 406 735 519 q 565 168 735 168 q 460 206 501 168 q 389 324 419 244 q 318 201 356 233 q 211 168 281 168 m 217 567 q 125 406 125 567 q 217 244 125 244 q 295 275 271 244 q 337 352 319 306 q 357 406 354 399 q 343 438 353 414 q 329 472 333 463 q 315 501 325 482 q 297 528 306 519 q 276 547 289 538 q 217 567 254 567 m 560 244 q 653 406 653 244 q 560 567 653 567 q 471 514 503 567 q 440 451 456 489 q 419 406 424 414 q 435 368 424 396 q 453 329 447 340 q 471 298 458 318 q 494 269 483 278 q 560 244 525 244 z "},"∫":{"ha":778,"x_min":126,"x_max":651,"o":"m 429 -6 q 385 -199 429 -143 q 244 -256 340 -256 l 126 -246 l 129 -174 q 240 -179 188 -179 q 319 -141 293 -179 q 344 -4 344 -103 l 344 793 q 389 1017 344 953 q 529 1082 433 1082 q 633 1074 582 1082 l 651 1071 l 649 1000 q 540 1007 594 1007 q 457 958 485 1007 q 429 793 429 910 l 429 -6 z "},"≈":{"ha":778,"x_min":90,"x_max":686,"o":"m 529 376 q 383 422 488 376 q 253 468 278 468 q 191 451 228 468 q 131 417 154 433 l 106 400 l 90 471 q 251 546 179 546 q 396 500 292 546 q 526 454 500 454 q 588 471 551 454 q 647 504 624 488 l 672 521 l 686 451 q 529 376 603 376 m 529 132 q 383 178 488 132 q 253 224 278 224 q 191 206 228 224 q 131 172 154 189 l 106 156 l 90 226 q 251 301 179 301 q 396 256 292 301 q 526 210 500 210 q 588 226 551 210 q 647 260 624 243 l 672 276 l 686 207 q 529 132 603 132 z "},"≠":{"ha":778,"x_min":90,"x_max":686,"o":"m 90 433 l 90 511 l 428 511 l 522 728 l 592 700 l 508 511 l 686 511 l 686 433 l 475 433 l 400 263 l 686 263 l 686 185 l 367 185 l 274 -29 l 204 -1 l 285 185 l 90 185 l 90 263 l 319 263 l 393 433 l 90 433 z "},"≤":{"ha":778,"x_min":90,"x_max":678,"o":"m 678 599 l 190 439 l 678 265 l 678 181 l 90 397 l 90 475 l 678 685 l 678 599 m 90 32 l 90 108 l 678 108 l 678 32 l 90 32 z "},"≥":{"ha":778,"x_min":99,"x_max":686,"o":"m 586 439 l 99 599 l 99 685 l 686 475 l 686 397 l 99 181 l 99 265 l 586 439 m 686 108 l 686 32 l 99 32 l 99 108 l 686 108 z "},"◊":{"ha":778,"x_min":78,"x_max":700,"o":"m 610 458 l 408 688 l 458 688 l 700 458 l 458 229 l 408 229 l 610 458 m 78 458 l 319 688 l 367 688 l 168 458 l 367 229 l 319 229 l 78 458 m 406 225 l 371 225 l 367 229 l 408 229 l 406 225 m 367 688 l 371 692 l 406 692 l 408 688 l 367 688 z "},"":{"ha":290,"x_min":-74,"x_max":188,"o":"m 104 14 l 104 694 l 188 694 l 188 13 q 142 -174 188 -110 q -40 -307 97 -237 l -74 -240 q 71 -131 38 -178 q 104 14 104 -83 z "},"":{"ha":236,"x_min":42,"x_max":181,"o":"m 42 -386 l 96 -108 l 181 -108 l 113 -386 l 42 -386 z "}}}
